<svg width="90" height="25" viewBox="0 0 90 25" fill="none" xmlns="http://www.w3.org/2000/svg">
<g filter="url(#filter0_d_2699_6)">
<path d="M7.75697 0.355225L13.1266 8.55315V0.355225H17.3678V15.8224H13.6108L8.24125 7.60205V15.8224H4V0.355225H7.75697Z" fill="white"/>
<path d="M37.0796 8.08809C37.0796 12.5515 33.2353 16.1537 28.7719 16.1537C24.3085 16.1537 20.4417 12.549 20.4417 8.08809C20.4417 3.62716 24.3085 0 28.7719 0C33.2353 0 37.0796 3.62466 37.0796 8.08809ZM33.0156 8.08809C33.0156 5.74654 31.1159 3.84684 28.7744 3.84684C26.4328 3.84684 24.5306 5.74404 24.5306 8.08809C24.5306 10.4296 26.4303 12.3094 28.7719 12.3094C31.1134 12.3094 33.0156 10.4296 33.0156 8.08809Z" fill="white"/>
<path d="M52.5481 3.93246H48.0172V15.8199H43.796V3.93246H39.2651V0.355225H52.5456V3.93246H52.5481Z" fill="white"/>
<path d="M63.7975 13.0815H58.8923L57.9412 15.8224H53.2356L59.0695 0.355225H63.6003L69.4567 15.8224H64.7511L63.7975 13.0815ZM62.5369 9.50176L61.3437 6.09927L60.1504 9.50176H62.5369Z" fill="white"/>
<path d="M85.0107 11.2267C85.0107 13.9227 83.2209 15.8224 79.1344 15.8224H72.5715V0.355225H78.8897C82.2273 0.355225 84.0147 2.05772 84.0147 4.61895C84.0147 5.50264 83.6602 6.78326 82.5793 7.57959C84.3692 8.28605 85.0107 9.8113 85.0107 11.2267ZM76.7903 3.93246V6.05433H78.9122C79.8633 6.05433 80.3051 5.59002 80.3051 4.99339C80.3051 4.39677 79.8633 3.93246 78.9122 3.93246H76.7903ZM81.2113 10.9371C81.2113 10.2082 80.6147 9.63406 79.5313 9.63406H76.7903V12.2402H79.5313C80.6147 12.2427 81.2113 11.6461 81.2113 10.9371Z" fill="white"/>
</g>
<defs>
<filter id="filter0_d_2699_6" x="0" y="0" width="89.0107" height="24.1538" filterUnits="userSpaceOnUse" color-interpolation-filters="sRGB">
<feFlood flood-opacity="0" result="BackgroundImageFix"/>
<feColorMatrix in="SourceAlpha" type="matrix" values="0 0 0 0 0 0 0 0 0 0 0 0 0 0 0 0 0 0 127 0" result="hardAlpha"/>
<feOffset dy="4"/>
<feGaussianBlur stdDeviation="2"/>
<feComposite in2="hardAlpha" operator="out"/>
<feColorMatrix type="matrix" values="0 0 0 0 0 0 0 0 0 0 0 0 0 0 0 0 0 0 0.25 0"/>
<feBlend mode="normal" in2="BackgroundImageFix" result="effect1_dropShadow_2699_6"/>
<feBlend mode="normal" in="SourceGraphic" in2="effect1_dropShadow_2699_6" result="shape"/>
</filter>
</defs>
</svg>
