<svg width="904" height="592" viewBox="0 0 904 592" fill="none" xmlns="http://www.w3.org/2000/svg">
<rect y="155" width="285" height="113" rx="18.2417" fill="black"/>
<rect x="0.380035" y="155.38" width="284.24" height="112.24" rx="17.8616" stroke="white" stroke-opacity="0.5" stroke-width="0.76007"/>
<rect x="222" y="526" width="175.576" height="65.366" rx="18.2417" fill="black"/>
<rect x="222.38" y="526.38" width="174.816" height="64.6059" rx="17.8616" stroke="white" stroke-opacity="0.5" stroke-width="0.76007"/>
<rect x="499" width="266.785" height="98.8091" rx="18.2417" fill="black"/>
<rect x="499.38" y="0.380035" width="266.025" height="98.049" rx="17.8616" stroke="white" stroke-opacity="0.5" stroke-width="0.76007"/>
<rect x="719" y="435" width="185" height="91" rx="18.2417" fill="black"/>
<rect x="719.38" y="435.38" width="184.24" height="90.2399" rx="17.8616" stroke="white" stroke-opacity="0.5" stroke-width="0.76007"/>
<path d="M257.121 561.825C257.121 561.112 256.868 560.563 256.364 560.177C255.866 559.791 254.964 559.401 253.658 559.008C252.352 558.615 251.313 558.177 250.541 557.694C249.063 556.766 248.325 555.556 248.325 554.065C248.325 552.758 248.856 551.682 249.917 550.836C250.986 549.99 252.37 549.566 254.07 549.566C255.198 549.566 256.204 549.774 257.087 550.19C257.971 550.606 258.665 551.199 259.169 551.971C259.674 552.736 259.926 553.586 259.926 554.521H257.121C257.121 553.675 256.853 553.014 256.319 552.539C255.792 552.057 255.035 551.815 254.048 551.815C253.127 551.815 252.411 552.012 251.899 552.406C251.394 552.799 251.142 553.348 251.142 554.053C251.142 554.647 251.416 555.145 251.966 555.545C252.515 555.939 253.421 556.325 254.682 556.703C255.944 557.074 256.957 557.501 257.722 557.984C258.486 558.459 259.047 559.008 259.403 559.631C259.759 560.248 259.938 560.971 259.938 561.803C259.938 563.153 259.418 564.23 258.379 565.031C257.347 565.826 255.944 566.223 254.17 566.223C252.997 566.223 251.917 566.007 250.93 565.577C249.95 565.139 249.186 564.538 248.637 563.773C248.095 563.009 247.824 562.118 247.824 561.101H250.641C250.641 562.022 250.945 562.734 251.554 563.239C252.162 563.744 253.035 563.996 254.17 563.996C255.15 563.996 255.885 563.799 256.375 563.406C256.872 563.005 257.121 562.478 257.121 561.825ZM266.061 560.834L264.859 562.07V566H262.153V548.898H264.859V558.763L265.705 557.705L269.034 553.953H272.285L267.809 558.975L272.764 566H269.635L266.061 560.834ZM276.939 566H274.233V553.953H276.939V566ZM274.066 550.825C274.066 550.409 274.196 550.064 274.456 549.789C274.723 549.514 275.102 549.377 275.592 549.377C276.082 549.377 276.46 549.514 276.727 549.789C276.995 550.064 277.128 550.409 277.128 550.825C277.128 551.233 276.995 551.574 276.727 551.849C276.46 552.116 276.082 552.25 275.592 552.25C275.102 552.25 274.723 552.116 274.456 551.849C274.196 551.574 274.066 551.233 274.066 550.825ZM290.444 560.099C290.444 561.962 290.021 563.45 289.175 564.564C288.329 565.67 287.193 566.223 285.768 566.223C284.447 566.223 283.389 565.788 282.595 564.92V570.632H279.889V553.953H282.383L282.495 555.178C283.289 554.213 284.369 553.731 285.735 553.731C287.204 553.731 288.355 554.28 289.186 555.378C290.025 556.469 290.444 557.987 290.444 559.932V560.099ZM287.75 559.865C287.75 558.663 287.509 557.709 287.026 557.004C286.551 556.299 285.868 555.946 284.978 555.946C283.872 555.946 283.077 556.403 282.595 557.316V562.66C283.085 563.595 283.886 564.063 285 564.063C285.861 564.063 286.533 563.718 287.015 563.027C287.505 562.33 287.75 561.276 287.75 559.865ZM301.812 551.025V553.953H303.938V555.957H301.812V562.682C301.812 563.142 301.901 563.476 302.079 563.684C302.265 563.885 302.591 563.985 303.059 563.985C303.371 563.985 303.686 563.948 304.005 563.873V565.967C303.389 566.137 302.795 566.223 302.224 566.223C300.146 566.223 299.106 565.076 299.106 562.782V555.957H297.125V553.953H299.106V551.025H301.812ZM308.681 555.267C309.565 554.243 310.682 553.731 312.033 553.731C314.601 553.731 315.904 555.196 315.941 558.128V566H313.235V558.229C313.235 557.397 313.053 556.811 312.69 556.469C312.333 556.121 311.806 555.946 311.109 555.946C310.025 555.946 309.216 556.429 308.681 557.394V566H305.976V548.898H308.681V555.267ZM323.99 566.223C322.276 566.223 320.884 565.685 319.815 564.608C318.754 563.525 318.223 562.085 318.223 560.288V559.954C318.223 558.752 318.453 557.679 318.913 556.737C319.381 555.787 320.034 555.048 320.873 554.521C321.712 553.994 322.647 553.731 323.679 553.731C325.319 553.731 326.585 554.254 327.475 555.3C328.374 556.347 328.823 557.828 328.823 559.743V560.834H320.951C321.033 561.829 321.363 562.615 321.942 563.194C322.528 563.773 323.263 564.063 324.146 564.063C325.386 564.063 326.395 563.562 327.175 562.56L328.633 563.951C328.151 564.671 327.505 565.232 326.696 565.633C325.894 566.026 324.993 566.223 323.99 566.223ZM323.668 555.902C322.925 555.902 322.324 556.161 321.864 556.681C321.411 557.201 321.122 557.924 320.995 558.852H326.15V558.652C326.091 557.746 325.85 557.063 325.427 556.603C325.004 556.135 324.417 555.902 323.668 555.902ZM339.489 566H336.783V548.898H339.489V566ZM345.323 566H342.617V553.953H345.323V566ZM342.45 550.825C342.45 550.409 342.58 550.064 342.84 549.789C343.107 549.514 343.486 549.377 343.976 549.377C344.466 549.377 344.844 549.514 345.111 549.789C345.379 550.064 345.512 550.409 345.512 550.825C345.512 551.233 345.379 551.574 345.111 551.849C344.844 552.116 344.466 552.25 343.976 552.25C343.486 552.25 343.107 552.116 342.84 551.849C342.58 551.574 342.45 551.233 342.45 550.825ZM350.79 553.953L350.868 555.345C351.758 554.269 352.927 553.731 354.375 553.731C356.884 553.731 358.16 555.167 358.205 558.039V566H355.499V558.195C355.499 557.431 355.332 556.867 354.998 556.503C354.672 556.132 354.134 555.946 353.384 555.946C352.293 555.946 351.48 556.44 350.946 557.427V566H348.24V553.953H350.79ZM366.277 566.223C364.562 566.223 363.17 565.685 362.102 564.608C361.04 563.525 360.509 562.085 360.509 560.288V559.954C360.509 558.752 360.74 557.679 361.2 556.737C361.667 555.787 362.321 555.048 363.159 554.521C363.998 553.994 364.933 553.731 365.965 553.731C367.605 553.731 368.871 554.254 369.762 555.3C370.66 556.347 371.109 557.828 371.109 559.743V560.834H363.237C363.319 561.829 363.649 562.615 364.228 563.194C364.815 563.773 365.549 564.063 366.433 564.063C367.672 564.063 368.682 563.562 369.461 562.56L370.92 563.951C370.437 564.671 369.791 565.232 368.982 565.633C368.181 566.026 367.279 566.223 366.277 566.223ZM365.954 555.902C365.212 555.902 364.61 556.161 364.15 556.681C363.697 557.201 363.408 557.924 363.282 558.852H368.437V558.652C368.377 557.746 368.136 557.063 367.713 556.603C367.29 556.135 366.704 555.902 365.954 555.902Z" fill="white"/>
<path d="M756.63 475H753.29L746.788 464.334V475H743.447V458.789H746.788L753.301 469.478V458.789H756.63V475ZM758.834 468.865C758.834 467.67 759.064 466.605 759.525 465.67C759.985 464.735 760.645 464.011 761.506 463.499C762.375 462.987 763.381 462.731 764.524 462.731C766.149 462.731 767.474 463.228 768.499 464.222C769.53 465.217 770.106 466.568 770.224 468.275L770.247 469.099C770.247 470.947 769.731 472.432 768.699 473.553C767.667 474.666 766.283 475.223 764.546 475.223C762.809 475.223 761.421 474.666 760.382 473.553C759.35 472.439 758.834 470.925 758.834 469.01V468.865ZM762.052 469.099C762.052 470.242 762.267 471.118 762.698 471.727C763.128 472.328 763.744 472.628 764.546 472.628C765.325 472.628 765.934 472.332 766.372 471.738C766.81 471.137 767.029 470.179 767.029 468.865C767.029 467.744 766.81 466.876 766.372 466.26C765.934 465.644 765.318 465.336 764.524 465.336C763.737 465.336 763.128 465.644 762.698 466.26C762.267 466.869 762.052 467.815 762.052 469.099ZM780.924 462.953L781.024 464.3C781.878 463.254 783.032 462.731 784.487 462.731C786.038 462.731 787.103 463.343 787.682 464.568C788.528 463.343 789.734 462.731 791.301 462.731C792.607 462.731 793.579 463.113 794.218 463.877C794.856 464.634 795.175 465.777 795.175 467.307V475H791.946V467.318C791.946 466.635 791.813 466.137 791.546 465.826C791.278 465.507 790.807 465.347 790.132 465.347C789.167 465.347 788.499 465.807 788.127 466.728L788.139 475H784.921V467.329C784.921 466.631 784.784 466.126 784.509 465.815C784.234 465.503 783.767 465.347 783.106 465.347C782.193 465.347 781.533 465.726 781.124 466.483V475H777.907V462.953H780.924ZM797.157 468.865C797.157 467.67 797.387 466.605 797.847 465.67C798.308 464.735 798.968 464.011 799.829 463.499C800.698 462.987 801.703 462.731 802.846 462.731C804.472 462.731 805.797 463.228 806.821 464.222C807.853 465.217 808.428 466.568 808.547 468.275L808.569 469.099C808.569 470.947 808.053 472.432 807.022 473.553C805.99 474.666 804.606 475.223 802.869 475.223C801.132 475.223 799.744 474.666 798.705 473.553C797.673 472.439 797.157 470.925 797.157 469.01V468.865ZM800.375 469.099C800.375 470.242 800.59 471.118 801.02 471.727C801.451 472.328 802.067 472.628 802.869 472.628C803.648 472.628 804.257 472.332 804.695 471.738C805.133 471.137 805.352 470.179 805.352 468.865C805.352 467.744 805.133 466.876 804.695 466.26C804.257 465.644 803.641 465.336 802.846 465.336C802.06 465.336 801.451 465.644 801.02 466.26C800.59 466.869 800.375 467.815 800.375 469.099ZM817.32 465.97C816.882 465.911 816.497 465.881 816.162 465.881C814.945 465.881 814.147 466.293 813.769 467.117V475H810.551V462.953H813.591L813.68 464.389C814.325 463.283 815.22 462.731 816.363 462.731C816.719 462.731 817.053 462.779 817.365 462.875L817.32 465.97ZM824.201 475.223C822.435 475.223 820.995 474.681 819.881 473.597C818.775 472.513 818.222 471.07 818.222 469.266V468.954C818.222 467.744 818.456 466.664 818.924 465.714C819.391 464.757 820.052 464.022 820.906 463.51C821.767 462.99 822.746 462.731 823.845 462.731C825.493 462.731 826.788 463.25 827.731 464.289C828.681 465.328 829.156 466.802 829.156 468.709V470.023H821.484C821.588 470.81 821.9 471.441 822.42 471.916C822.947 472.391 823.611 472.628 824.413 472.628C825.652 472.628 826.621 472.179 827.319 471.281L828.9 473.052C828.417 473.734 827.764 474.269 826.94 474.655C826.116 475.033 825.203 475.223 824.201 475.223ZM823.834 465.336C823.195 465.336 822.676 465.551 822.275 465.982C821.882 466.412 821.629 467.028 821.518 467.83H825.994V467.574C825.979 466.861 825.786 466.312 825.415 465.926C825.044 465.533 824.517 465.336 823.834 465.336ZM843.195 471.671C843.195 471.278 842.999 470.97 842.605 470.747C842.219 470.517 841.596 470.313 840.735 470.135C837.87 469.533 836.437 468.316 836.437 466.483C836.437 465.414 836.879 464.523 837.762 463.81C838.653 463.091 839.814 462.731 841.247 462.731C842.776 462.731 843.997 463.091 844.91 463.81C845.83 464.53 846.291 465.466 846.291 466.616H843.073C843.073 466.156 842.925 465.777 842.628 465.481C842.331 465.176 841.867 465.024 841.236 465.024C840.694 465.024 840.275 465.147 839.978 465.391C839.681 465.636 839.532 465.948 839.532 466.327C839.532 466.683 839.699 466.973 840.033 467.195C840.375 467.41 840.946 467.6 841.748 467.763C842.55 467.919 843.225 468.097 843.774 468.297C845.474 468.921 846.324 470.001 846.324 471.537C846.324 472.636 845.853 473.527 844.91 474.209C843.967 474.885 842.75 475.223 841.258 475.223C840.249 475.223 839.351 475.045 838.564 474.688C837.784 474.325 837.172 473.831 836.727 473.207C836.281 472.577 836.059 471.897 836.059 471.17H839.109C839.139 471.741 839.351 472.179 839.744 472.484C840.137 472.788 840.664 472.94 841.325 472.94C841.941 472.94 842.405 472.825 842.717 472.595C843.036 472.358 843.195 472.05 843.195 471.671ZM859.25 469.088C859.25 470.944 858.827 472.432 857.981 473.553C857.142 474.666 856.007 475.223 854.574 475.223C853.357 475.223 852.373 474.8 851.624 473.953V479.632H848.406V462.953H851.39L851.501 464.133C852.281 463.198 853.298 462.731 854.552 462.731C856.036 462.731 857.191 463.28 858.015 464.378C858.839 465.477 859.25 466.991 859.25 468.921V469.088ZM856.033 468.854C856.033 467.733 855.832 466.869 855.432 466.26C855.038 465.651 854.463 465.347 853.706 465.347C852.696 465.347 852.002 465.733 851.624 466.505V471.437C852.017 472.231 852.719 472.628 853.728 472.628C855.265 472.628 856.033 471.37 856.033 468.854ZM864.65 475H861.422V457.898H864.65V475ZM870.707 475H867.478V462.953H870.707V475ZM867.289 459.836C867.289 459.353 867.449 458.956 867.768 458.644C868.094 458.333 868.536 458.177 869.093 458.177C869.642 458.177 870.08 458.333 870.407 458.644C870.733 458.956 870.896 459.353 870.896 459.836C870.896 460.326 870.729 460.726 870.395 461.038C870.069 461.35 869.635 461.506 869.093 461.506C868.551 461.506 868.113 461.35 867.779 461.038C867.452 460.726 867.289 460.326 867.289 459.836ZM877.22 459.992V462.953H879.28V465.314H877.22V471.326C877.22 471.771 877.306 472.09 877.477 472.283C877.647 472.476 877.974 472.573 878.456 472.573C878.813 472.573 879.128 472.547 879.403 472.495V474.933C878.772 475.126 878.122 475.223 877.454 475.223C875.198 475.223 874.047 474.083 874.003 471.805V465.314H872.244V462.953H874.003V459.992H877.22ZM747.734 497.446L749.961 489.953H753.412L748.569 503.87L748.302 504.505C747.582 506.079 746.394 506.865 744.739 506.865C744.271 506.865 743.796 506.795 743.314 506.654V504.216L743.804 504.227C744.412 504.227 744.865 504.134 745.162 503.948C745.466 503.763 745.704 503.455 745.875 503.024L746.253 502.033L742.033 489.953H745.496L747.734 497.446ZM754.002 495.865C754.002 494.67 754.232 493.605 754.693 492.67C755.153 491.735 755.813 491.011 756.674 490.499C757.543 489.987 758.549 489.731 759.692 489.731C761.317 489.731 762.642 490.228 763.666 491.222C764.698 492.217 765.273 493.568 765.392 495.275L765.414 496.099C765.414 497.947 764.899 499.432 763.867 500.553C762.835 501.666 761.451 502.223 759.714 502.223C757.977 502.223 756.589 501.666 755.55 500.553C754.518 499.439 754.002 497.925 754.002 496.01V495.865ZM757.22 496.099C757.22 497.242 757.435 498.118 757.866 498.727C758.296 499.328 758.912 499.628 759.714 499.628C760.493 499.628 761.102 499.332 761.54 498.738C761.978 498.137 762.197 497.179 762.197 495.865C762.197 494.744 761.978 493.876 761.54 493.26C761.102 492.644 760.486 492.336 759.692 492.336C758.905 492.336 758.296 492.644 757.866 493.26C757.435 493.869 757.22 494.815 757.22 496.099ZM774.611 500.775C773.817 501.74 772.718 502.223 771.315 502.223C770.024 502.223 769.037 501.852 768.354 501.109C767.678 500.367 767.333 499.28 767.318 497.847V489.953H770.536V497.736C770.536 498.99 771.108 499.617 772.251 499.617C773.342 499.617 774.091 499.239 774.5 498.482V489.953H777.728V502H774.7L774.611 500.775ZM786.925 492.97C786.487 492.911 786.101 492.881 785.767 492.881C784.55 492.881 783.752 493.293 783.373 494.117V502H780.156V489.953H783.195L783.284 491.389C783.93 490.283 784.824 489.731 785.968 489.731C786.324 489.731 786.658 489.779 786.97 489.875L786.925 492.97ZM798.014 486.992V489.953H800.074V492.314H798.014V498.326C798.014 498.771 798.1 499.09 798.27 499.283C798.441 499.476 798.768 499.573 799.25 499.573C799.606 499.573 799.922 499.547 800.197 499.495V501.933C799.566 502.126 798.916 502.223 798.248 502.223C795.992 502.223 794.841 501.083 794.797 498.805V492.314H793.038V489.953H794.797V486.992H798.014ZM808.848 502C808.699 501.711 808.591 501.351 808.525 500.92C807.745 501.788 806.732 502.223 805.485 502.223C804.305 502.223 803.325 501.881 802.546 501.198C801.774 500.515 801.388 499.654 801.388 498.615C801.388 497.339 801.859 496.359 802.802 495.676C803.752 494.993 805.121 494.648 806.91 494.641H808.391V493.95C808.391 493.394 808.246 492.948 807.957 492.614C807.675 492.28 807.226 492.113 806.61 492.113C806.068 492.113 805.641 492.243 805.329 492.503C805.025 492.763 804.873 493.119 804.873 493.572H801.655C801.655 492.874 801.87 492.228 802.301 491.634C802.731 491.041 803.34 490.577 804.127 490.243C804.914 489.901 805.797 489.731 806.777 489.731C808.261 489.731 809.438 490.105 810.306 490.855C811.182 491.597 811.62 492.644 811.62 493.995V499.217C811.627 500.36 811.787 501.224 812.099 501.811V502H808.848ZM806.187 499.762C806.662 499.762 807.1 499.658 807.5 499.45C807.901 499.235 808.198 498.949 808.391 498.593V496.522H807.189C805.578 496.522 804.721 497.079 804.617 498.192L804.606 498.382C804.606 498.782 804.747 499.113 805.029 499.372C805.311 499.632 805.697 499.762 806.187 499.762ZM824.947 496.088C824.947 498.018 824.535 499.525 823.711 500.608C822.887 501.685 821.737 502.223 820.26 502.223C818.953 502.223 817.911 501.722 817.131 500.72L816.986 502H814.092V484.898H817.309V491.033C818.052 490.165 819.028 489.731 820.237 489.731C821.707 489.731 822.858 490.272 823.689 491.356C824.528 492.432 824.947 493.95 824.947 495.91V496.088ZM821.729 495.854C821.729 494.637 821.536 493.75 821.15 493.193C820.764 492.629 820.189 492.347 819.425 492.347C818.4 492.347 817.695 492.766 817.309 493.605V498.359C817.703 499.205 818.415 499.628 819.447 499.628C820.486 499.628 821.169 499.116 821.496 498.092C821.651 497.602 821.729 496.856 821.729 495.854Z" fill="white"/>
<path d="M535.507 44H532.691L525.465 32.4987V44H522.648V27.7891H525.465L532.713 39.3349V27.7891H535.507V44ZM538.068 37.8653C538.068 36.6851 538.302 35.6236 538.77 34.681C539.237 33.7309 539.894 33.0035 540.74 32.4987C541.586 31.9866 542.559 31.7305 543.657 31.7305C545.283 31.7305 546.6 32.2538 547.61 33.3004C548.627 34.347 549.176 35.735 549.258 37.4644L549.269 38.0991C549.269 39.2867 549.039 40.3481 548.579 41.2833C548.126 42.2186 547.473 42.9423 546.619 43.4544C545.773 43.9666 544.793 44.2227 543.68 44.2227C541.98 44.2227 540.618 43.6586 539.594 42.5303C538.577 41.3947 538.068 39.8842 538.068 37.9989V37.8653ZM540.774 38.0991C540.774 39.3386 541.03 40.311 541.542 41.0161C542.054 41.7139 542.767 42.0627 543.68 42.0627C544.593 42.0627 545.301 41.7064 545.806 40.9939C546.318 40.2813 546.574 39.2384 546.574 37.8653C546.574 36.648 546.311 35.683 545.784 34.9705C545.264 34.2579 544.555 33.9016 543.657 33.9016C542.774 33.9016 542.073 34.2542 541.553 34.9593C541.033 35.657 540.774 36.7036 540.774 38.0991ZM559.779 31.9532L559.857 33.2113C560.703 32.2241 561.861 31.7305 563.331 31.7305C564.942 31.7305 566.044 32.3466 566.638 33.5787C567.513 32.3466 568.746 31.7305 570.334 31.7305C571.663 31.7305 572.65 32.0979 573.296 32.8328C573.949 33.5676 574.283 34.6513 574.298 36.0838V44H571.592V36.1618C571.592 35.3973 571.425 34.8369 571.091 34.4806C570.757 34.1243 570.204 33.9461 569.432 33.9461C568.816 33.9461 568.311 34.1132 567.918 34.4472C567.532 34.7738 567.261 35.2043 567.105 35.7387L567.116 44H564.411V36.0727C564.374 34.655 563.65 33.9461 562.24 33.9461C561.156 33.9461 560.388 34.3878 559.935 35.2711V44H557.23V31.9532H559.779ZM576.569 37.8653C576.569 36.6851 576.803 35.6236 577.27 34.681C577.738 33.7309 578.395 33.0035 579.241 32.4987C580.087 31.9866 581.06 31.7305 582.158 31.7305C583.784 31.7305 585.101 32.2538 586.111 33.3004C587.128 34.347 587.677 35.735 587.758 37.4644L587.77 38.0991C587.77 39.2867 587.54 40.3481 587.079 41.2833C586.627 42.2186 585.973 42.9423 585.12 43.4544C584.274 43.9666 583.294 44.2227 582.18 44.2227C580.481 44.2227 579.119 43.6586 578.094 42.5303C577.077 41.3947 576.569 39.8842 576.569 37.9989V37.8653ZM579.275 38.0991C579.275 39.3386 579.531 40.311 580.043 41.0161C580.555 41.7139 581.267 42.0627 582.18 42.0627C583.093 42.0627 583.802 41.7064 584.307 40.9939C584.819 40.2813 585.075 39.2384 585.075 37.8653C585.075 36.648 584.812 35.683 584.285 34.9705C583.765 34.2579 583.056 33.9016 582.158 33.9016C581.275 33.9016 580.573 34.2542 580.054 34.9593C579.534 35.657 579.275 36.7036 579.275 38.0991ZM596.365 34.4249C596.009 34.3655 595.641 34.3358 595.263 34.3358C594.023 34.3358 593.188 34.8109 592.758 35.761V44H590.052V31.9532H592.635L592.702 33.3004C593.355 32.2538 594.261 31.7305 595.419 31.7305C595.805 31.7305 596.124 31.7825 596.376 31.8864L596.365 34.4249ZM603.157 44.2227C601.442 44.2227 600.05 43.6845 598.981 42.6083C597.92 41.5246 597.389 40.0846 597.389 38.2883V37.9543C597.389 36.7519 597.619 35.6793 598.08 34.7366C598.547 33.7866 599.2 33.048 600.039 32.521C600.878 31.994 601.813 31.7305 602.845 31.7305C604.485 31.7305 605.751 32.2538 606.641 33.3004C607.54 34.347 607.989 35.8278 607.989 37.7428V38.8339H600.117C600.199 39.8285 600.529 40.6153 601.108 41.1943C601.694 41.7732 602.429 42.0627 603.312 42.0627C604.552 42.0627 605.562 41.5617 606.341 40.5596L607.799 41.9514C607.317 42.6714 606.671 43.2318 605.862 43.6326C605.06 44.026 604.159 44.2227 603.157 44.2227ZM602.834 33.9016C602.091 33.9016 601.49 34.1614 601.03 34.681C600.577 35.2006 600.288 35.9243 600.162 36.8521H605.317V36.6517C605.257 35.7461 605.016 35.0632 604.593 34.603C604.17 34.1354 603.583 33.9016 602.834 33.9016ZM618.655 44H615.949V26.8984H618.655V44ZM621.104 37.8653C621.104 36.6851 621.338 35.6236 621.806 34.681C622.273 33.7309 622.93 33.0035 623.776 32.4987C624.623 31.9866 625.595 31.7305 626.694 31.7305C628.319 31.7305 629.637 32.2538 630.646 33.3004C631.663 34.347 632.212 35.735 632.294 37.4644L632.305 38.0991C632.305 39.2867 632.075 40.3481 631.615 41.2833C631.162 42.2186 630.509 42.9423 629.655 43.4544C628.809 43.9666 627.829 44.2227 626.716 44.2227C625.016 44.2227 623.654 43.6586 622.63 42.5303C621.613 41.3947 621.104 39.8842 621.104 37.9989V37.8653ZM623.81 38.0991C623.81 39.3386 624.066 40.311 624.578 41.0161C625.09 41.7139 625.803 42.0627 626.716 42.0627C627.629 42.0627 628.338 41.7064 628.842 40.9939C629.355 40.2813 629.611 39.2384 629.611 37.8653C629.611 36.648 629.347 35.683 628.82 34.9705C628.301 34.2579 627.592 33.9016 626.694 33.9016C625.81 33.9016 625.109 34.2542 624.589 34.9593C624.07 35.657 623.81 36.7036 623.81 38.0991ZM641.346 40.7267C641.346 40.2442 641.145 39.8768 640.744 39.6244C640.351 39.372 639.694 39.1494 638.774 38.9564C637.853 38.7634 637.085 38.5184 636.469 38.2215C635.118 37.5684 634.443 36.622 634.443 35.3824C634.443 34.3433 634.881 33.4748 635.756 32.7771C636.632 32.0794 637.746 31.7305 639.097 31.7305C640.537 31.7305 641.698 32.0868 642.582 32.7994C643.472 33.5119 643.918 34.436 643.918 35.5717H641.212C641.212 35.0521 641.019 34.6216 640.633 34.2802C640.247 33.9313 639.735 33.7569 639.097 33.7569C638.503 33.7569 638.017 33.8942 637.638 34.1688C637.267 34.4435 637.081 34.8109 637.081 35.2711C637.081 35.6867 637.256 36.0096 637.605 36.2397C637.954 36.4698 638.659 36.7036 639.72 36.9411C640.782 37.1712 641.613 37.4496 642.214 37.7762C642.823 38.0954 643.272 38.4813 643.561 38.9341C643.858 39.3869 644.007 39.9361 644.007 40.5819C644.007 41.6656 643.558 42.5452 642.659 43.2206C641.761 43.8887 640.585 44.2227 639.13 44.2227C638.143 44.2227 637.263 44.0445 636.491 43.6883C635.719 43.332 635.118 42.8421 634.688 42.2186C634.257 41.5951 634.042 40.9233 634.042 40.2034H636.669C636.707 40.8417 636.948 41.3353 637.393 41.6842C637.839 42.0256 638.429 42.1963 639.163 42.1963C639.876 42.1963 640.418 42.0627 640.789 41.7955C641.16 41.5209 641.346 41.1646 641.346 40.7267ZM649.763 29.025V31.9532H651.889V33.9573H649.763V40.6821C649.763 41.1423 649.852 41.4763 650.03 41.6842C650.216 41.8846 650.542 41.9848 651.01 41.9848C651.322 41.9848 651.637 41.9477 651.956 41.8734V43.9666C651.34 44.1373 650.746 44.2227 650.175 44.2227C648.096 44.2227 647.057 43.0759 647.057 40.7823V33.9573H645.075V31.9532H647.057V29.025H649.763ZM659.138 37.8653C659.138 36.6851 659.371 35.6236 659.839 34.681C660.307 33.7309 660.963 33.0035 661.81 32.4987C662.656 31.9866 663.628 31.7305 664.727 31.7305C666.352 31.7305 667.67 32.2538 668.679 33.3004C669.696 34.347 670.245 35.735 670.327 37.4644L670.338 38.0991C670.338 39.2867 670.108 40.3481 669.648 41.2833C669.195 42.2186 668.542 42.9423 667.688 43.4544C666.842 43.9666 665.862 44.2227 664.749 44.2227C663.049 44.2227 661.687 43.6586 660.663 42.5303C659.646 41.3947 659.138 39.8842 659.138 37.9989V37.8653ZM661.843 38.0991C661.843 39.3386 662.099 40.311 662.611 41.0161C663.123 41.7139 663.836 42.0627 664.749 42.0627C665.662 42.0627 666.371 41.7064 666.876 40.9939C667.388 40.2813 667.644 39.2384 667.644 37.8653C667.644 36.648 667.38 35.683 666.853 34.9705C666.334 34.2579 665.625 33.9016 664.727 33.9016C663.843 33.9016 663.142 34.2542 662.622 34.9593C662.103 35.657 661.843 36.7036 661.843 38.0991ZM678.934 34.4249C678.577 34.3655 678.21 34.3358 677.831 34.3358C676.592 34.3358 675.757 34.8109 675.326 35.761V44H672.621V31.9532H675.204L675.27 33.3004C675.924 32.2538 676.829 31.7305 677.987 31.7305C678.373 31.7305 678.692 31.7825 678.945 31.8864L678.934 34.4249ZM523.338 71V60.9573H521.501V58.9532H523.338V57.8509C523.338 56.5149 523.709 55.4831 524.451 54.7557C525.194 54.0283 526.233 53.6646 527.569 53.6646C528.044 53.6646 528.549 53.7314 529.083 53.865L529.016 55.9805C528.719 55.9211 528.374 55.8914 527.981 55.8914C526.689 55.8914 526.044 56.5557 526.044 57.8843V58.9532H528.493V60.9573H526.044V71H523.338ZM529.963 64.8653C529.963 63.6851 530.197 62.6236 530.664 61.681C531.132 60.7309 531.789 60.0035 532.635 59.4987C533.481 58.9866 534.453 58.7305 535.552 58.7305C537.177 58.7305 538.495 59.2538 539.504 60.3004C540.521 61.347 541.071 62.735 541.152 64.4644L541.163 65.0991C541.163 66.2867 540.933 67.3481 540.473 68.2833C540.02 69.2186 539.367 69.9423 538.514 70.4544C537.667 70.9666 536.688 71.2227 535.574 71.2227C533.874 71.2227 532.512 70.6586 531.488 69.5303C530.471 68.3947 529.963 66.8842 529.963 64.9989V64.8653ZM532.668 65.0991C532.668 66.3386 532.924 67.311 533.436 68.0161C533.949 68.7139 534.661 69.0627 535.574 69.0627C536.487 69.0627 537.196 68.7064 537.701 67.9939C538.213 67.2813 538.469 66.2384 538.469 64.8653C538.469 63.648 538.205 62.683 537.678 61.9705C537.159 61.2579 536.45 60.9016 535.552 60.9016C534.669 60.9016 533.967 61.2542 533.448 61.9593C532.928 62.657 532.668 63.7036 532.668 65.0991ZM549.759 61.4249C549.402 61.3655 549.035 61.3358 548.656 61.3358C547.417 61.3358 546.582 61.8109 546.151 62.761V71H543.446V58.9532H546.029L546.096 60.3004C546.749 59.2538 547.654 58.7305 548.812 58.7305C549.198 58.7305 549.517 58.7825 549.77 58.8864L549.759 61.4249ZM550.772 64.8875C550.772 63.017 551.21 61.5251 552.086 60.4117C552.969 59.2909 554.138 58.7305 555.593 58.7305C556.966 58.7305 558.046 59.2093 558.833 60.1668L558.955 58.9532H561.394V70.6326C561.394 72.2136 560.9 73.4606 559.913 74.3736C558.933 75.2865 557.608 75.743 555.938 75.743C555.055 75.743 554.19 75.5575 553.344 75.1863C552.505 74.8226 551.867 74.3439 551.429 73.7501L552.709 72.1245C553.54 73.1117 554.565 73.6053 555.782 73.6053C556.68 73.6053 557.389 73.3604 557.909 72.8705C558.428 72.388 558.688 71.6755 558.688 70.7328V69.92C557.909 70.7885 556.87 71.2227 555.571 71.2227C554.16 71.2227 553.006 70.6623 552.108 69.5415C551.217 68.4207 550.772 66.8693 550.772 64.8875ZM553.466 65.1213C553.466 66.3312 553.711 67.285 554.201 67.9827C554.698 68.673 555.385 69.0182 556.261 69.0182C557.352 69.0182 558.161 68.5506 558.688 67.6153V62.3156C558.176 61.4026 557.374 60.9461 556.283 60.9461C555.392 60.9461 554.698 61.2987 554.201 62.0039C553.711 62.709 553.466 63.7482 553.466 65.1213ZM563.676 64.8653C563.676 63.6851 563.91 62.6236 564.377 61.681C564.845 60.7309 565.502 60.0035 566.348 59.4987C567.194 58.9866 568.167 58.7305 569.265 58.7305C570.891 58.7305 572.208 59.2538 573.218 60.3004C574.235 61.347 574.784 62.735 574.866 64.4644L574.877 65.0991C574.877 66.2867 574.647 67.3481 574.186 68.2833C573.734 69.2186 573.08 69.9423 572.227 70.4544C571.381 70.9666 570.401 71.2227 569.287 71.2227C567.588 71.2227 566.226 70.6586 565.201 69.5303C564.184 68.3947 563.676 66.8842 563.676 64.9989V64.8653ZM566.382 65.0991C566.382 66.3386 566.638 67.311 567.15 68.0161C567.662 68.7139 568.374 69.0627 569.287 69.0627C570.2 69.0627 570.909 68.7064 571.414 67.9939C571.926 67.2813 572.182 66.2384 572.182 64.8653C572.182 63.648 571.919 62.683 571.392 61.9705C570.872 61.2579 570.163 60.9016 569.265 60.9016C568.382 60.9016 567.68 61.2542 567.161 61.9593C566.641 62.657 566.382 63.7036 566.382 65.0991ZM580.555 56.025V58.9532H582.681V60.9573H580.555V67.6821C580.555 68.1423 580.644 68.4763 580.822 68.6842C581.008 68.8846 581.334 68.9848 581.802 68.9848C582.114 68.9848 582.429 68.9477 582.748 68.8734V70.9666C582.132 71.1373 581.538 71.2227 580.967 71.2227C578.889 71.2227 577.849 70.0759 577.849 67.7823V60.9573H575.868V58.9532H577.849V56.025H580.555ZM588.148 56.025V58.9532H590.275V60.9573H588.148V67.6821C588.148 68.1423 588.237 68.4763 588.415 68.6842C588.601 68.8846 588.928 68.9848 589.395 68.9848C589.707 68.9848 590.022 68.9477 590.342 68.8734V70.9666C589.725 71.1373 589.132 71.2227 588.56 71.2227C586.482 71.2227 585.443 70.0759 585.443 67.7823V60.9573H583.461V58.9532H585.443V56.025H588.148ZM597.656 71.2227C595.942 71.2227 594.55 70.6845 593.481 69.6083C592.42 68.5246 591.889 67.0846 591.889 65.2883V64.9543C591.889 63.7519 592.119 62.6793 592.579 61.7366C593.047 60.7866 593.7 60.048 594.539 59.521C595.378 58.994 596.313 58.7305 597.345 58.7305C598.985 58.7305 600.251 59.2538 601.141 60.3004C602.04 61.347 602.489 62.8278 602.489 64.7428V65.8339H594.617C594.699 66.8285 595.029 67.6153 595.608 68.1943C596.194 68.7732 596.929 69.0627 597.812 69.0627C599.052 69.0627 600.061 68.5617 600.841 67.5596L602.299 68.9514C601.817 69.6714 601.171 70.2318 600.362 70.6326C599.56 71.026 598.659 71.2227 597.656 71.2227ZM597.334 60.9016C596.591 60.9016 595.99 61.1614 595.53 61.681C595.077 62.2006 594.788 62.9243 594.661 63.8521H599.816V63.6517C599.757 62.7461 599.516 62.0632 599.093 61.603C598.67 61.1354 598.083 60.9016 597.334 60.9016ZM607.109 58.9532L607.187 60.3449C608.078 59.2686 609.247 58.7305 610.694 58.7305C613.203 58.7305 614.48 60.1668 614.524 63.0393V71H611.819V63.1952C611.819 62.4307 611.652 61.8665 611.318 61.5028C610.991 61.1317 610.453 60.9461 609.703 60.9461C608.612 60.9461 607.799 61.4397 607.265 62.4269V71H604.559V58.9532H607.109ZM627.918 69.0627C628.594 69.0627 629.154 68.866 629.599 68.4726C630.045 68.0792 630.282 67.593 630.312 67.0141H632.862C632.832 67.7638 632.598 68.4652 632.16 69.1184C631.722 69.7641 631.129 70.2763 630.379 70.6549C629.629 71.0334 628.82 71.2227 627.952 71.2227C626.267 71.2227 624.931 70.6771 623.943 69.586C622.956 68.4949 622.463 66.9881 622.463 65.0657V64.7873C622.463 62.9539 622.953 61.488 623.932 60.3895C624.912 59.2835 626.248 58.7305 627.941 58.7305C629.373 58.7305 630.538 59.1499 631.437 59.9886C632.342 60.82 632.817 61.9148 632.862 63.2731H630.312C630.282 62.5828 630.045 62.015 629.599 61.5696C629.162 61.1243 628.601 60.9016 627.918 60.9016C627.042 60.9016 626.367 61.2208 625.892 61.8591C625.417 62.49 625.176 63.4513 625.168 64.7428V65.177C625.168 66.4834 625.402 67.4594 625.87 68.1052C626.345 68.7435 627.028 69.0627 627.918 69.0627ZM641.212 61.4249C640.856 61.3655 640.488 61.3358 640.11 61.3358C638.87 61.3358 638.035 61.8109 637.605 62.761V71H634.899V58.9532H637.482L637.549 60.3004C638.202 59.2538 639.108 58.7305 640.266 58.7305C640.652 58.7305 640.971 58.7825 641.223 58.8864L641.212 61.4249ZM648.004 71.2227C646.289 71.2227 644.897 70.6845 643.829 69.6083C642.767 68.5246 642.236 67.0846 642.236 65.2883V64.9543C642.236 63.7519 642.466 62.6793 642.927 61.7366C643.394 60.7866 644.047 60.048 644.886 59.521C645.725 58.994 646.66 58.7305 647.692 58.7305C649.332 58.7305 650.598 59.2538 651.489 60.3004C652.387 61.347 652.836 62.8278 652.836 64.7428V65.8339H644.964C645.046 66.8285 645.376 67.6153 645.955 68.1943C646.541 68.7732 647.276 69.0627 648.16 69.0627C649.399 69.0627 650.409 68.5617 651.188 67.5596L652.647 68.9514C652.164 69.6714 651.518 70.2318 650.709 70.6326C649.908 71.026 649.006 71.2227 648.004 71.2227ZM647.681 60.9016C646.939 60.9016 646.337 61.1614 645.877 61.681C645.424 62.2006 645.135 62.9243 645.009 63.8521H650.164V63.6517C650.104 62.7461 649.863 62.0632 649.44 61.603C649.017 61.1354 648.43 60.9016 647.681 60.9016ZM654.439 64.8875C654.439 63.0319 654.87 61.5437 655.731 60.4229C656.592 59.2946 657.746 58.7305 659.193 58.7305C660.47 58.7305 661.502 59.1759 662.288 60.0666V53.8984H664.994V71H662.544L662.411 69.753C661.602 70.7328 660.522 71.2227 659.171 71.2227C657.761 71.2227 656.618 70.6549 655.742 69.5192C654.873 68.3835 654.439 66.8397 654.439 64.8875ZM657.145 65.1213C657.145 66.3461 657.378 67.3036 657.846 67.9939C658.321 68.6767 658.993 69.0182 659.861 69.0182C660.967 69.0182 661.776 68.5246 662.288 67.5374V62.3935C661.791 61.4286 660.989 60.9461 659.883 60.9461C659.008 60.9461 658.332 61.295 657.857 61.9927C657.382 62.683 657.145 63.7259 657.145 65.1213ZM670.694 71H667.989V58.9532H670.694V71ZM667.822 55.8246C667.822 55.4089 667.952 55.0638 668.212 54.7891C668.479 54.5145 668.857 54.3772 669.347 54.3772C669.837 54.3772 670.216 54.5145 670.483 54.7891C670.75 55.0638 670.884 55.4089 670.884 55.8246C670.884 56.2328 670.75 56.5743 670.483 56.8489C670.216 57.1161 669.837 57.2497 669.347 57.2497C668.857 57.2497 668.479 57.1161 668.212 56.8489C667.952 56.5743 667.822 56.2328 667.822 55.8246ZM677.041 56.025V58.9532H679.167V60.9573H677.041V67.6821C677.041 68.1423 677.13 68.4763 677.308 68.6842C677.494 68.8846 677.82 68.9848 678.288 68.9848C678.599 68.9848 678.915 68.9477 679.234 68.8734V70.9666C678.618 71.1373 678.024 71.2227 677.453 71.2227C675.374 71.2227 674.335 70.0759 674.335 67.7823V60.9573H672.353V58.9532H674.335V56.025H677.041ZM691.871 69.0627C692.546 69.0627 693.107 68.866 693.552 68.4726C693.998 68.0792 694.235 67.593 694.265 67.0141H696.814C696.785 67.7638 696.551 68.4652 696.113 69.1184C695.675 69.7641 695.081 70.2763 694.332 70.6549C693.582 71.0334 692.773 71.2227 691.904 71.2227C690.219 71.2227 688.883 70.6771 687.896 69.586C686.909 68.4949 686.415 66.9881 686.415 65.0657V64.7873C686.415 62.9539 686.905 61.488 687.885 60.3895C688.865 59.2835 690.201 58.7305 691.893 58.7305C693.326 58.7305 694.491 59.1499 695.389 59.9886C696.295 60.82 696.77 61.9148 696.814 63.2731H694.265C694.235 62.5828 693.998 62.015 693.552 61.5696C693.114 61.1243 692.554 60.9016 691.871 60.9016C690.995 60.9016 690.32 61.2208 689.845 61.8591C689.37 62.49 689.128 63.4513 689.121 64.7428V65.177C689.121 66.4834 689.355 67.4594 689.822 68.1052C690.297 68.7435 690.98 69.0627 691.871 69.0627ZM706.056 71C705.937 70.7699 705.833 70.3951 705.744 69.8755C704.883 70.7736 703.829 71.2227 702.582 71.2227C701.372 71.2227 700.385 70.8775 699.62 70.1872C698.856 69.4969 698.473 68.6433 698.473 67.6264C698.473 66.3423 698.948 65.3589 699.899 64.676C700.856 63.9857 702.222 63.6405 703.996 63.6405H705.655V62.85C705.655 62.2265 705.48 61.7292 705.131 61.3581C704.783 60.9795 704.252 60.7903 703.539 60.7903C702.923 60.7903 702.418 60.9461 702.025 61.2579C701.632 61.5622 701.435 61.9519 701.435 62.4269H698.729C698.729 61.7663 698.948 61.1503 699.386 60.5787C699.824 59.9998 700.418 59.547 701.168 59.2204C701.925 58.8938 702.767 58.7305 703.695 58.7305C705.105 58.7305 706.23 59.0868 707.069 59.7994C707.907 60.5045 708.338 61.4991 708.36 62.7832V68.2165C708.36 69.3002 708.512 70.165 708.817 70.8107V71H706.056ZM703.083 69.0516C703.617 69.0516 704.118 68.9217 704.586 68.6619C705.061 68.4021 705.417 68.0532 705.655 67.6153V65.344H704.196C703.194 65.344 702.441 65.5184 701.936 65.8673C701.431 66.2162 701.179 66.7098 701.179 67.3481C701.179 67.8677 701.35 68.2833 701.691 68.5951C702.04 68.8994 702.504 69.0516 703.083 69.0516ZM717.501 61.4249C717.145 61.3655 716.777 61.3358 716.399 61.3358C715.159 61.3358 714.324 61.8109 713.894 62.761V71H711.188V58.9532H713.771L713.838 60.3004C714.491 59.2538 715.397 58.7305 716.555 58.7305C716.941 58.7305 717.26 58.7825 717.512 58.8864L717.501 61.4249ZM718.481 64.8875C718.481 63.0319 718.911 61.5437 719.772 60.4229C720.633 59.2946 721.788 58.7305 723.235 58.7305C724.512 58.7305 725.543 59.1759 726.33 60.0666V53.8984H729.036V71H726.586L726.453 69.753C725.644 70.7328 724.564 71.2227 723.213 71.2227C721.802 71.2227 720.659 70.6549 719.784 69.5192C718.915 68.3835 718.481 66.8397 718.481 64.8875ZM721.186 65.1213C721.186 66.3461 721.42 67.3036 721.888 67.9939C722.363 68.6767 723.035 69.0182 723.903 69.0182C725.009 69.0182 725.818 68.5246 726.33 67.5374V62.3935C725.833 61.4286 725.031 60.9461 723.925 60.9461C723.049 60.9461 722.374 61.295 721.899 61.9927C721.424 62.683 721.186 63.7259 721.186 65.1213ZM738.611 67.7267C738.611 67.2442 738.41 66.8768 738.01 66.6244C737.616 66.372 736.959 66.1494 736.039 65.9564C735.119 65.7634 734.35 65.5184 733.734 65.2215C732.383 64.5684 731.708 63.622 731.708 62.3824C731.708 61.3433 732.146 60.4748 733.022 59.7771C733.898 59.0794 735.011 58.7305 736.362 58.7305C737.802 58.7305 738.963 59.0868 739.847 59.7994C740.737 60.5119 741.183 61.436 741.183 62.5717H738.477C738.477 62.0521 738.284 61.6216 737.898 61.2802C737.512 60.9313 737 60.7569 736.362 60.7569C735.768 60.7569 735.282 60.8942 734.903 61.1688C734.532 61.4435 734.347 61.8109 734.347 62.2711C734.347 62.6867 734.521 63.0096 734.87 63.2397C735.219 63.4698 735.924 63.7036 736.985 63.9411C738.047 64.1712 738.878 64.4496 739.479 64.7762C740.088 65.0954 740.537 65.4813 740.827 65.9341C741.123 66.3869 741.272 66.9361 741.272 67.5819C741.272 68.6656 740.823 69.5452 739.925 70.2206C739.027 70.8887 737.85 71.2227 736.395 71.2227C735.408 71.2227 734.528 71.0445 733.757 70.6883C732.985 70.332 732.383 69.8421 731.953 69.2186C731.522 68.5951 731.307 67.9233 731.307 67.2034H733.935C733.972 67.8417 734.213 68.3353 734.658 68.6842C735.104 69.0256 735.694 69.1963 736.429 69.1963C737.141 69.1963 737.683 69.0627 738.054 68.7955C738.425 68.5209 738.611 68.1646 738.611 67.7267Z" fill="white"/>
<path d="M40.5074 206H37.6905L30.4647 194.499V206H27.6478V189.789H30.4647L37.7128 201.335V189.789H40.5074V206ZM43.0682 199.865C43.0682 198.685 43.302 197.624 43.7696 196.681C44.2372 195.731 44.8941 195.003 45.7403 194.499C46.5865 193.987 47.5588 193.731 48.6574 193.731C50.2829 193.731 51.6004 194.254 52.6099 195.3C53.6268 196.347 54.176 197.735 54.2577 199.464L54.2688 200.099C54.2688 201.287 54.0387 202.348 53.5785 203.283C53.1257 204.219 52.4726 204.942 51.619 205.454C50.7728 205.967 49.793 206.223 48.6796 206.223C46.9799 206.223 45.6178 205.659 44.5935 204.53C43.5766 203.395 43.0682 201.884 43.0682 199.999V199.865ZM45.7737 200.099C45.7737 201.339 46.0298 202.311 46.5419 203.016C47.0541 203.714 47.7667 204.063 48.6796 204.063C49.5926 204.063 50.3015 203.706 50.8062 202.994C51.3183 202.281 51.5744 201.238 51.5744 199.865C51.5744 198.648 51.3109 197.683 50.7839 196.97C50.2643 196.258 49.5555 195.902 48.6574 195.902C47.7741 195.902 47.0726 196.254 46.5531 196.959C46.0335 197.657 45.7737 198.704 45.7737 200.099ZM64.7792 193.953L64.8571 195.211C65.7033 194.224 66.8612 193.731 68.3309 193.731C69.9415 193.731 71.0438 194.347 71.6376 195.579C72.5135 194.347 73.7456 193.731 75.334 193.731C76.6627 193.731 77.6499 194.098 78.2956 194.833C78.9488 195.568 79.2828 196.651 79.2977 198.084V206H76.5922V198.162C76.5922 197.397 76.4252 196.837 76.0911 196.481C75.7571 196.124 75.2041 195.946 74.4322 195.946C73.8161 195.946 73.3114 196.113 72.918 196.447C72.532 196.774 72.2611 197.204 72.1052 197.739L72.1164 206H69.4108V198.073C69.3737 196.655 68.65 195.946 67.2397 195.946C66.156 195.946 65.3878 196.388 64.935 197.271V206H62.2295V193.953H64.7792ZM81.569 199.865C81.569 198.685 81.8028 197.624 82.2704 196.681C82.738 195.731 83.3949 195.003 84.2411 194.499C85.0873 193.987 86.0596 193.731 87.1582 193.731C88.7837 193.731 90.1012 194.254 91.1107 195.3C92.1276 196.347 92.6768 197.735 92.7585 199.464L92.7696 200.099C92.7696 201.287 92.5395 202.348 92.0793 203.283C91.6266 204.219 90.9734 204.942 90.1198 205.454C89.2736 205.967 88.2938 206.223 87.1804 206.223C85.4807 206.223 84.1186 205.659 83.0943 204.53C82.0774 203.395 81.569 201.884 81.569 199.999V199.865ZM84.2745 200.099C84.2745 201.339 84.5306 202.311 85.0427 203.016C85.5549 203.714 86.2675 204.063 87.1804 204.063C88.0934 204.063 88.8023 203.706 89.307 202.994C89.8192 202.281 90.0752 201.238 90.0752 199.865C90.0752 198.648 89.8117 197.683 89.2847 196.97C88.7652 196.258 88.0563 195.902 87.1582 195.902C86.2749 195.902 85.5735 196.254 85.0539 196.959C84.5343 197.657 84.2745 198.704 84.2745 200.099ZM101.365 196.425C101.009 196.366 100.641 196.336 100.263 196.336C99.0231 196.336 98.1881 196.811 97.7576 197.761V206H95.0521V193.953H97.6351L97.7019 195.3C98.3551 194.254 99.2607 193.731 100.419 193.731C100.805 193.731 101.124 193.782 101.376 193.886L101.365 196.425ZM108.157 206.223C106.442 206.223 105.05 205.685 103.981 204.608C102.92 203.525 102.389 202.085 102.389 200.288V199.954C102.389 198.752 102.619 197.679 103.08 196.737C103.547 195.787 104.2 195.048 105.039 194.521C105.878 193.994 106.813 193.731 107.845 193.731C109.485 193.731 110.751 194.254 111.641 195.3C112.54 196.347 112.989 197.828 112.989 199.743V200.834H105.117C105.199 201.829 105.529 202.615 106.108 203.194C106.694 203.773 107.429 204.063 108.312 204.063C109.552 204.063 110.562 203.562 111.341 202.56L112.799 203.951C112.317 204.671 111.671 205.232 110.862 205.633C110.06 206.026 109.159 206.223 108.157 206.223ZM107.834 195.902C107.091 195.902 106.49 196.161 106.03 196.681C105.577 197.201 105.288 197.924 105.162 198.852H110.317V198.652C110.257 197.746 110.016 197.063 109.593 196.603C109.17 196.135 108.583 195.902 107.834 195.902ZM123.655 206H120.949V188.898H123.655V206ZM126.104 199.865C126.104 198.685 126.338 197.624 126.806 196.681C127.273 195.731 127.93 195.003 128.776 194.499C129.623 193.987 130.595 193.731 131.694 193.731C133.319 193.731 134.637 194.254 135.646 195.3C136.663 196.347 137.212 197.735 137.294 199.464L137.305 200.099C137.305 201.287 137.075 202.348 136.615 203.283C136.162 204.219 135.509 204.942 134.655 205.454C133.809 205.967 132.829 206.223 131.716 206.223C130.016 206.223 128.654 205.659 127.63 204.53C126.613 203.395 126.104 201.884 126.104 199.999V199.865ZM128.81 200.099C128.81 201.339 129.066 202.311 129.578 203.016C130.09 203.714 130.803 204.063 131.716 204.063C132.629 204.063 133.338 203.706 133.842 202.994C134.355 202.281 134.611 201.238 134.611 199.865C134.611 198.648 134.347 197.683 133.82 196.97C133.301 196.258 132.592 195.902 131.694 195.902C130.81 195.902 130.109 196.254 129.589 196.959C129.07 197.657 128.81 198.704 128.81 200.099ZM146.346 202.727C146.346 202.244 146.145 201.877 145.744 201.624C145.351 201.372 144.694 201.149 143.774 200.956C142.853 200.763 142.085 200.518 141.469 200.222C140.118 199.568 139.443 198.622 139.443 197.382C139.443 196.343 139.881 195.475 140.756 194.777C141.632 194.079 142.746 193.731 144.097 193.731C145.537 193.731 146.698 194.087 147.582 194.799C148.472 195.512 148.918 196.436 148.918 197.572H146.212C146.212 197.052 146.019 196.622 145.633 196.28C145.247 195.931 144.735 195.757 144.097 195.757C143.503 195.757 143.017 195.894 142.638 196.169C142.267 196.443 142.081 196.811 142.081 197.271C142.081 197.687 142.256 198.01 142.605 198.24C142.954 198.47 143.659 198.704 144.72 198.941C145.782 199.171 146.613 199.45 147.214 199.776C147.823 200.095 148.272 200.481 148.561 200.934C148.858 201.387 149.007 201.936 149.007 202.582C149.007 203.666 148.558 204.545 147.659 205.221C146.761 205.889 145.585 206.223 144.13 206.223C143.143 206.223 142.263 206.045 141.491 205.688C140.719 205.332 140.118 204.842 139.688 204.219C139.257 203.595 139.042 202.923 139.042 202.203H141.669C141.707 202.842 141.948 203.335 142.393 203.684C142.839 204.026 143.429 204.196 144.163 204.196C144.876 204.196 145.418 204.063 145.789 203.795C146.16 203.521 146.346 203.165 146.346 202.727ZM154.763 191.025V193.953H156.889V195.957H154.763V202.682C154.763 203.142 154.852 203.476 155.03 203.684C155.216 203.885 155.542 203.985 156.01 203.985C156.322 203.985 156.637 203.948 156.956 203.873V205.967C156.34 206.137 155.746 206.223 155.175 206.223C153.096 206.223 152.057 205.076 152.057 202.782V195.957H150.075V193.953H152.057V191.025H154.763ZM164.138 199.865C164.138 198.685 164.371 197.624 164.839 196.681C165.307 195.731 165.963 195.003 166.81 194.499C167.656 193.987 168.628 193.731 169.727 193.731C171.352 193.731 172.67 194.254 173.679 195.3C174.696 196.347 175.245 197.735 175.327 199.464L175.338 200.099C175.338 201.287 175.108 202.348 174.648 203.283C174.195 204.219 173.542 204.942 172.688 205.454C171.842 205.967 170.862 206.223 169.749 206.223C168.049 206.223 166.687 205.659 165.663 204.53C164.646 203.395 164.138 201.884 164.138 199.999V199.865ZM166.843 200.099C166.843 201.339 167.099 202.311 167.611 203.016C168.123 203.714 168.836 204.063 169.749 204.063C170.662 204.063 171.371 203.706 171.876 202.994C172.388 202.281 172.644 201.238 172.644 199.865C172.644 198.648 172.38 197.683 171.853 196.97C171.334 196.258 170.625 195.902 169.727 195.902C168.843 195.902 168.142 196.254 167.622 196.959C167.103 197.657 166.843 198.704 166.843 200.099ZM183.934 196.425C183.577 196.366 183.21 196.336 182.831 196.336C181.592 196.336 180.757 196.811 180.326 197.761V206H177.621V193.953H180.204L180.27 195.3C180.924 194.254 181.829 193.731 182.987 193.731C183.373 193.731 183.692 193.782 183.945 193.886L183.934 196.425ZM28.3381 233V222.957H26.501V220.953H28.3381V219.851C28.3381 218.515 28.7092 217.483 29.4515 216.756C30.1937 216.028 31.2329 215.665 32.569 215.665C33.044 215.665 33.5487 215.731 34.0832 215.865L34.0164 217.98C33.7195 217.921 33.3743 217.891 32.9809 217.891C31.6894 217.891 31.0436 218.556 31.0436 219.884V220.953H33.4931V222.957H31.0436V233H28.3381ZM34.9627 226.865C34.9627 225.685 35.1966 224.624 35.6642 223.681C36.1318 222.731 36.7887 222.003 37.6349 221.499C38.481 220.987 39.4534 220.731 40.5519 220.731C42.1775 220.731 43.495 221.254 44.5044 222.3C45.5213 223.347 46.0706 224.735 46.1522 226.464L46.1634 227.099C46.1634 228.287 45.9333 229.348 45.4731 230.283C45.0203 231.219 44.3671 231.942 43.5135 232.454C42.6674 232.967 41.6876 233.223 40.5742 233.223C38.8744 233.223 37.5124 232.659 36.4881 231.53C35.4712 230.395 34.9627 228.884 34.9627 226.999V226.865ZM37.6683 227.099C37.6683 228.339 37.9243 229.311 38.4365 230.016C38.9487 230.714 39.6612 231.063 40.5742 231.063C41.4872 231.063 42.196 230.706 42.7008 229.994C43.2129 229.281 43.469 228.238 43.469 226.865C43.469 225.648 43.2055 224.683 42.6785 223.97C42.1589 223.258 41.4501 222.902 40.5519 222.902C39.6686 222.902 38.9672 223.254 38.4476 223.959C37.9281 224.657 37.6683 225.704 37.6683 227.099ZM54.7587 223.425C54.4024 223.366 54.035 223.336 53.6565 223.336C52.4169 223.336 51.5819 223.811 51.1513 224.761V233H48.4458V220.953H51.0289L51.0957 222.3C51.7489 221.254 52.6544 220.731 53.8123 220.731C54.1983 220.731 54.5175 220.782 54.7698 220.886L54.7587 223.425ZM55.7719 226.888C55.7719 225.017 56.2098 223.525 57.0857 222.412C57.969 221.291 59.138 220.731 60.5928 220.731C61.966 220.731 63.046 221.209 63.8328 222.167L63.9553 220.953H66.3936V232.633C66.3936 234.214 65.9 235.461 64.9128 236.374C63.933 237.287 62.6081 237.743 60.938 237.743C60.0547 237.743 59.19 237.557 58.3438 237.186C57.5051 236.823 56.8667 236.344 56.4288 235.75L57.7092 234.125C58.5405 235.112 59.5648 235.605 60.7821 235.605C61.6802 235.605 62.3891 235.36 62.9087 234.87C63.4283 234.388 63.688 233.675 63.688 232.733V231.92C62.9087 232.788 61.8695 233.223 60.5706 233.223C59.1603 233.223 58.0061 232.662 57.1079 231.541C56.2172 230.421 55.7719 228.869 55.7719 226.888ZM58.4663 227.121C58.4663 228.331 58.7112 229.285 59.2011 229.983C59.6984 230.673 60.385 231.018 61.2609 231.018C62.352 231.018 63.161 230.551 63.688 229.615V224.316C63.1759 223.403 62.3743 222.946 61.2831 222.946C60.3924 222.946 59.6984 223.299 59.2011 224.004C58.7112 224.709 58.4663 225.748 58.4663 227.121ZM68.676 226.865C68.676 225.685 68.9098 224.624 69.3774 223.681C69.8451 222.731 70.502 222.003 71.3481 221.499C72.1943 220.987 73.1667 220.731 74.2652 220.731C75.8907 220.731 77.2082 221.254 78.2177 222.3C79.2346 223.347 79.7839 224.735 79.8655 226.464L79.8766 227.099C79.8766 228.287 79.6465 229.348 79.1863 230.283C78.7336 231.219 78.0804 231.942 77.2268 232.454C76.3806 232.967 75.4008 233.223 74.2875 233.223C72.5877 233.223 71.2257 232.659 70.2013 231.53C69.1844 230.395 68.676 228.884 68.676 226.999V226.865ZM71.3815 227.099C71.3815 228.339 71.6376 229.311 72.1498 230.016C72.6619 230.714 73.3745 231.063 74.2875 231.063C75.2004 231.063 75.9093 230.706 76.414 229.994C76.9262 229.281 77.1823 228.238 77.1823 226.865C77.1823 225.648 76.9188 224.683 76.3918 223.97C75.8722 223.258 75.1633 222.902 74.2652 222.902C73.3819 222.902 72.6805 223.254 72.1609 223.959C71.6413 224.657 71.3815 225.704 71.3815 227.099ZM85.5549 218.025V220.953H87.6815V222.957H85.5549V229.682C85.5549 230.142 85.644 230.476 85.8221 230.684C86.0077 230.885 86.3343 230.985 86.8019 230.985C87.1136 230.985 87.4291 230.948 87.7483 230.873V232.967C87.1322 233.137 86.5384 233.223 85.9669 233.223C83.8885 233.223 82.8494 232.076 82.8494 229.782V222.957H80.8676V220.953H82.8494V218.025H85.5549ZM93.1482 218.025V220.953H95.2747V222.957H93.1482V229.682C93.1482 230.142 93.2373 230.476 93.4154 230.684C93.601 230.885 93.9276 230.985 94.3952 230.985C94.7069 230.985 95.0224 230.948 95.3415 230.873V232.967C94.7255 233.137 94.1317 233.223 93.5601 233.223C91.4818 233.223 90.4427 232.076 90.4427 229.782V222.957H88.4608V220.953H90.4427V218.025H93.1482ZM102.656 233.223C100.942 233.223 99.5501 232.685 98.4813 231.608C97.4199 230.525 96.8892 229.085 96.8892 227.288V226.954C96.8892 225.752 97.1193 224.679 97.5794 223.737C98.0471 222.787 98.7003 222.048 99.539 221.521C100.378 220.994 101.313 220.731 102.345 220.731C103.985 220.731 105.251 221.254 106.141 222.3C107.04 223.347 107.489 224.828 107.489 226.743V227.834H99.6169C99.6986 228.829 100.029 229.615 100.608 230.194C101.194 230.773 101.929 231.063 102.812 231.063C104.052 231.063 105.061 230.562 105.841 229.56L107.299 230.951C106.817 231.671 106.171 232.232 105.362 232.633C104.56 233.026 103.659 233.223 102.656 233.223ZM102.334 222.902C101.591 222.902 100.99 223.161 100.53 223.681C100.077 224.201 99.7877 224.924 99.6615 225.852H104.816V225.652C104.757 224.746 104.516 224.063 104.093 223.603C103.67 223.135 103.083 222.902 102.334 222.902ZM112.109 220.953L112.187 222.345C113.078 221.269 114.247 220.731 115.694 220.731C118.203 220.731 119.48 222.167 119.524 225.039V233H116.819V225.195C116.819 224.431 116.652 223.867 116.318 223.503C115.991 223.132 115.453 222.946 114.703 222.946C113.612 222.946 112.799 223.44 112.265 224.427V233H109.559V220.953H112.109ZM132.918 231.063C133.594 231.063 134.154 230.866 134.599 230.473C135.045 230.079 135.282 229.593 135.312 229.014H137.862C137.832 229.764 137.598 230.465 137.16 231.118C136.722 231.764 136.129 232.276 135.379 232.655C134.629 233.033 133.82 233.223 132.952 233.223C131.267 233.223 129.931 232.677 128.943 231.586C127.956 230.495 127.463 228.988 127.463 227.066V226.787C127.463 224.954 127.953 223.488 128.932 222.389C129.912 221.283 131.248 220.731 132.941 220.731C134.373 220.731 135.538 221.15 136.437 221.989C137.342 222.82 137.817 223.915 137.862 225.273H135.312C135.282 224.583 135.045 224.015 134.599 223.57C134.162 223.124 133.601 222.902 132.918 222.902C132.042 222.902 131.367 223.221 130.892 223.859C130.417 224.49 130.176 225.451 130.168 226.743V227.177C130.168 228.483 130.402 229.459 130.87 230.105C131.345 230.744 132.028 231.063 132.918 231.063ZM146.212 223.425C145.856 223.366 145.488 223.336 145.11 223.336C143.87 223.336 143.035 223.811 142.605 224.761V233H139.899V220.953H142.482L142.549 222.3C143.202 221.254 144.108 220.731 145.266 220.731C145.652 220.731 145.971 220.782 146.223 220.886L146.212 223.425ZM153.004 233.223C151.289 233.223 149.897 232.685 148.829 231.608C147.767 230.525 147.236 229.085 147.236 227.288V226.954C147.236 225.752 147.466 224.679 147.927 223.737C148.394 222.787 149.047 222.048 149.886 221.521C150.725 220.994 151.66 220.731 152.692 220.731C154.332 220.731 155.598 221.254 156.489 222.3C157.387 223.347 157.836 224.828 157.836 226.743V227.834H149.964C150.046 228.829 150.376 229.615 150.955 230.194C151.541 230.773 152.276 231.063 153.16 231.063C154.399 231.063 155.409 230.562 156.188 229.56L157.647 230.951C157.164 231.671 156.518 232.232 155.709 232.633C154.908 233.026 154.006 233.223 153.004 233.223ZM152.681 222.902C151.939 222.902 151.337 223.161 150.877 223.681C150.424 224.201 150.135 224.924 150.009 225.852H155.164V225.652C155.104 224.746 154.863 224.063 154.44 223.603C154.017 223.135 153.43 222.902 152.681 222.902ZM159.439 226.888C159.439 225.032 159.87 223.544 160.731 222.423C161.592 221.295 162.746 220.731 164.193 220.731C165.47 220.731 166.502 221.176 167.288 222.067V215.898H169.994V233H167.544L167.411 231.753C166.602 232.733 165.522 233.223 164.171 233.223C162.761 233.223 161.618 232.655 160.742 231.519C159.873 230.384 159.439 228.84 159.439 226.888ZM162.145 227.121C162.145 228.346 162.378 229.304 162.846 229.994C163.321 230.677 163.993 231.018 164.861 231.018C165.967 231.018 166.776 230.525 167.288 229.537V224.394C166.791 223.429 165.989 222.946 164.883 222.946C164.008 222.946 163.332 223.295 162.857 223.993C162.382 224.683 162.145 225.726 162.145 227.121ZM175.694 233H172.989V220.953H175.694V233ZM172.822 217.825C172.822 217.409 172.952 217.064 173.212 216.789C173.479 216.514 173.857 216.377 174.347 216.377C174.837 216.377 175.216 216.514 175.483 216.789C175.75 217.064 175.884 217.409 175.884 217.825C175.884 218.233 175.75 218.574 175.483 218.849C175.216 219.116 174.837 219.25 174.347 219.25C173.857 219.25 173.479 219.116 173.212 218.849C172.952 218.574 172.822 218.233 172.822 217.825ZM182.041 218.025V220.953H184.167V222.957H182.041V229.682C182.041 230.142 182.13 230.476 182.308 230.684C182.494 230.885 182.82 230.985 183.288 230.985C183.599 230.985 183.915 230.948 184.234 230.873V232.967C183.618 233.137 183.024 233.223 182.453 233.223C180.374 233.223 179.335 232.076 179.335 229.782V222.957H177.353V220.953H179.335V218.025H182.041ZM196.871 231.063C197.546 231.063 198.107 230.866 198.552 230.473C198.998 230.079 199.235 229.593 199.265 229.014H201.814C201.785 229.764 201.551 230.465 201.113 231.118C200.675 231.764 200.081 232.276 199.332 232.655C198.582 233.033 197.773 233.223 196.904 233.223C195.219 233.223 193.883 232.677 192.896 231.586C191.909 230.495 191.415 228.988 191.415 227.066V226.787C191.415 224.954 191.905 223.488 192.885 222.389C193.865 221.283 195.201 220.731 196.893 220.731C198.326 220.731 199.491 221.15 200.389 221.989C201.295 222.82 201.77 223.915 201.814 225.273H199.265C199.235 224.583 198.998 224.015 198.552 223.57C198.114 223.124 197.554 222.902 196.871 222.902C195.995 222.902 195.32 223.221 194.845 223.859C194.37 224.49 194.128 225.451 194.121 226.743V227.177C194.121 228.483 194.355 229.459 194.822 230.105C195.297 230.744 195.98 231.063 196.871 231.063ZM211.056 233C210.937 232.77 210.833 232.395 210.744 231.875C209.883 232.774 208.829 233.223 207.582 233.223C206.372 233.223 205.385 232.878 204.62 232.187C203.856 231.497 203.473 230.643 203.473 229.626C203.473 228.342 203.948 227.359 204.899 226.676C205.856 225.986 207.222 225.641 208.996 225.641H210.655V224.85C210.655 224.227 210.48 223.729 210.131 223.358C209.783 222.98 209.252 222.79 208.539 222.79C207.923 222.79 207.418 222.946 207.025 223.258C206.632 223.562 206.435 223.952 206.435 224.427H203.729C203.729 223.766 203.948 223.15 204.386 222.579C204.824 222 205.418 221.547 206.168 221.22C206.925 220.894 207.767 220.731 208.695 220.731C210.105 220.731 211.23 221.087 212.069 221.799C212.907 222.505 213.338 223.499 213.36 224.783V230.217C213.36 231.3 213.512 232.165 213.817 232.811V233H211.056ZM208.083 231.052C208.617 231.052 209.118 230.922 209.586 230.662C210.061 230.402 210.417 230.053 210.655 229.615V227.344H209.196C208.194 227.344 207.441 227.518 206.936 227.867C206.431 228.216 206.179 228.71 206.179 229.348C206.179 229.868 206.35 230.283 206.691 230.595C207.04 230.899 207.504 231.052 208.083 231.052ZM222.501 223.425C222.145 223.366 221.777 223.336 221.399 223.336C220.159 223.336 219.324 223.811 218.894 224.761V233H216.188V220.953H218.771L218.838 222.3C219.491 221.254 220.397 220.731 221.555 220.731C221.941 220.731 222.26 220.782 222.512 220.886L222.501 223.425ZM223.481 226.888C223.481 225.032 223.911 223.544 224.772 222.423C225.633 221.295 226.788 220.731 228.235 220.731C229.512 220.731 230.543 221.176 231.33 222.067V215.898H234.036V233H231.586L231.453 231.753C230.644 232.733 229.564 233.223 228.213 233.223C226.802 233.223 225.659 232.655 224.784 231.519C223.915 230.384 223.481 228.84 223.481 226.888ZM226.186 227.121C226.186 228.346 226.42 229.304 226.888 229.994C227.363 230.677 228.035 231.018 228.903 231.018C230.009 231.018 230.818 230.525 231.33 229.537V224.394C230.833 223.429 230.031 222.946 228.925 222.946C228.049 222.946 227.374 223.295 226.899 223.993C226.424 224.683 226.186 225.726 226.186 227.121ZM243.611 229.727C243.611 229.244 243.41 228.877 243.01 228.624C242.616 228.372 241.959 228.149 241.039 227.956C240.119 227.763 239.35 227.518 238.734 227.222C237.383 226.568 236.708 225.622 236.708 224.382C236.708 223.343 237.146 222.475 238.022 221.777C238.898 221.079 240.011 220.731 241.362 220.731C242.802 220.731 243.963 221.087 244.847 221.799C245.737 222.512 246.183 223.436 246.183 224.572H243.477C243.477 224.052 243.284 223.622 242.898 223.28C242.512 222.931 242 222.757 241.362 222.757C240.768 222.757 240.282 222.894 239.903 223.169C239.532 223.443 239.347 223.811 239.347 224.271C239.347 224.687 239.521 225.01 239.87 225.24C240.219 225.47 240.924 225.704 241.985 225.941C243.047 226.171 243.878 226.45 244.479 226.776C245.088 227.095 245.537 227.481 245.827 227.934C246.123 228.387 246.272 228.936 246.272 229.582C246.272 230.666 245.823 231.545 244.925 232.221C244.027 232.889 242.85 233.223 241.395 233.223C240.408 233.223 239.528 233.045 238.757 232.688C237.985 232.332 237.383 231.842 236.953 231.219C236.522 230.595 236.307 229.923 236.307 229.203H238.935C238.972 229.842 239.213 230.335 239.658 230.684C240.104 231.026 240.694 231.196 241.429 231.196C242.141 231.196 242.683 231.063 243.054 230.795C243.425 230.521 243.611 230.165 243.611 229.727Z" fill="white"/>
</svg>
