<svg width="330" height="552" viewBox="0 0 330 552" fill="none" xmlns="http://www.w3.org/2000/svg">
<rect x="9" width="165" height="57" rx="10" fill="black"/>
<rect x="9.38004" y="0.380035" width="164.24" height="56.2399" rx="9.61996" stroke="white" stroke-opacity="0.5" stroke-width="0.76007"/>
<path d="M32.9072 26H31.1777L26.7412 18.9385V26H25.0117V16.0469H26.7412L31.1914 23.1357V16.0469H32.9072V26ZM34.4795 22.2334C34.4795 21.5088 34.623 20.8571 34.9102 20.2783C35.1973 19.695 35.6006 19.2484 36.1201 18.9385C36.6396 18.624 37.2367 18.4668 37.9111 18.4668C38.9092 18.4668 39.7181 18.7881 40.3379 19.4307C40.9622 20.0732 41.2995 20.9255 41.3496 21.9873L41.3564 22.377C41.3564 23.1061 41.2152 23.7578 40.9326 24.332C40.6546 24.9062 40.2536 25.3506 39.7295 25.665C39.21 25.9795 38.6084 26.1367 37.9248 26.1367C36.8812 26.1367 36.0449 25.7904 35.416 25.0977C34.7917 24.4004 34.4795 23.473 34.4795 22.3154V22.2334ZM36.1406 22.377C36.1406 23.138 36.2979 23.735 36.6123 24.168C36.9268 24.5964 37.3643 24.8105 37.9248 24.8105C38.4854 24.8105 38.9206 24.5918 39.2305 24.1543C39.5449 23.7168 39.7021 23.0765 39.7021 22.2334C39.7021 21.486 39.5404 20.8936 39.2168 20.4561C38.8978 20.0186 38.4626 19.7998 37.9111 19.7998C37.3688 19.7998 36.9382 20.0163 36.6191 20.4492C36.3001 20.8776 36.1406 21.5202 36.1406 22.377ZM47.8096 18.6035L47.8574 19.376C48.377 18.7699 49.0879 18.4668 49.9902 18.4668C50.9792 18.4668 51.6559 18.8451 52.0205 19.6016C52.5583 18.8451 53.3148 18.4668 54.29 18.4668C55.1058 18.4668 55.7119 18.6924 56.1084 19.1436C56.5094 19.5947 56.7145 20.2601 56.7236 21.1396V26H55.0625V21.1875C55.0625 20.7181 54.96 20.374 54.7549 20.1553C54.5498 19.9365 54.2103 19.8271 53.7363 19.8271C53.3581 19.8271 53.0482 19.9297 52.8066 20.1348C52.5697 20.3353 52.4033 20.5996 52.3076 20.9277L52.3145 26H50.6533V21.1328C50.6305 20.2624 50.1862 19.8271 49.3203 19.8271C48.6549 19.8271 48.1833 20.0983 47.9053 20.6406V26H46.2441V18.6035H47.8096ZM58.1182 22.2334C58.1182 21.5088 58.2617 20.8571 58.5488 20.2783C58.8359 19.695 59.2393 19.2484 59.7588 18.9385C60.2783 18.624 60.8753 18.4668 61.5498 18.4668C62.5479 18.4668 63.3568 18.7881 63.9766 19.4307C64.6009 20.0732 64.9382 20.9255 64.9883 21.9873L64.9951 22.377C64.9951 23.1061 64.8538 23.7578 64.5713 24.332C64.2933 24.9062 63.8923 25.3506 63.3682 25.665C62.8486 25.9795 62.2471 26.1367 61.5635 26.1367C60.5199 26.1367 59.6836 25.7904 59.0547 25.0977C58.4303 24.4004 58.1182 23.473 58.1182 22.3154V22.2334ZM59.7793 22.377C59.7793 23.138 59.9365 23.735 60.251 24.168C60.5654 24.5964 61.0029 24.8105 61.5635 24.8105C62.124 24.8105 62.5592 24.5918 62.8691 24.1543C63.1836 23.7168 63.3408 23.0765 63.3408 22.2334C63.3408 21.486 63.179 20.8936 62.8555 20.4561C62.5365 20.0186 62.1012 19.7998 61.5498 19.7998C61.0075 19.7998 60.5768 20.0163 60.2578 20.4492C59.9388 20.8776 59.7793 21.5202 59.7793 22.377ZM70.2725 20.1211C70.0537 20.0846 69.8281 20.0664 69.5957 20.0664C68.8346 20.0664 68.3219 20.3581 68.0576 20.9414V26H66.3965V18.6035H67.9824L68.0234 19.4307C68.4245 18.7881 68.9805 18.4668 69.6914 18.4668C69.9284 18.4668 70.1243 18.4987 70.2793 18.5625L70.2725 20.1211ZM74.4424 26.1367C73.3896 26.1367 72.5352 25.8063 71.8789 25.1455C71.2272 24.4801 70.9014 23.596 70.9014 22.4932V22.2881C70.9014 21.5498 71.0426 20.8913 71.3252 20.3125C71.6123 19.7292 72.0133 19.2757 72.5283 18.9521C73.0433 18.6286 73.6175 18.4668 74.251 18.4668C75.2581 18.4668 76.0352 18.7881 76.582 19.4307C77.1335 20.0732 77.4092 20.9824 77.4092 22.1582V22.8281H72.5762C72.6263 23.4388 72.8291 23.9219 73.1846 24.2773C73.5446 24.6328 73.9958 24.8105 74.5381 24.8105C75.2992 24.8105 75.9189 24.5029 76.3975 23.8877L77.293 24.7422C76.9967 25.1842 76.6003 25.5283 76.1035 25.7744C75.6113 26.016 75.0576 26.1367 74.4424 26.1367ZM74.2441 19.7998C73.7884 19.7998 73.4193 19.9593 73.1367 20.2783C72.8587 20.5973 72.681 21.0417 72.6035 21.6113H75.7686V21.4883C75.7321 20.9323 75.584 20.513 75.3242 20.2305C75.0645 19.9434 74.7044 19.7998 74.2441 19.7998ZM83.958 26H82.2969V15.5H83.958V26ZM85.4619 22.2334C85.4619 21.5088 85.6055 20.8571 85.8926 20.2783C86.1797 19.695 86.583 19.2484 87.1025 18.9385C87.6221 18.624 88.2191 18.4668 88.8936 18.4668C89.8916 18.4668 90.7005 18.7881 91.3203 19.4307C91.9447 20.0732 92.2819 20.9255 92.332 21.9873L92.3389 22.377C92.3389 23.1061 92.1976 23.7578 91.915 24.332C91.637 24.9062 91.236 25.3506 90.7119 25.665C90.1924 25.9795 89.5908 26.1367 88.9072 26.1367C87.8636 26.1367 87.0273 25.7904 86.3984 25.0977C85.7741 24.4004 85.4619 23.473 85.4619 22.3154V22.2334ZM87.123 22.377C87.123 23.138 87.2803 23.735 87.5947 24.168C87.9092 24.5964 88.3467 24.8105 88.9072 24.8105C89.4678 24.8105 89.903 24.5918 90.2129 24.1543C90.5273 23.7168 90.6846 23.0765 90.6846 22.2334C90.6846 21.486 90.5228 20.8936 90.1992 20.4561C89.8802 20.0186 89.445 19.7998 88.8936 19.7998C88.3512 19.7998 87.9206 20.0163 87.6016 20.4492C87.2826 20.8776 87.123 21.5202 87.123 22.377ZM97.8896 23.9902C97.8896 23.694 97.7666 23.4684 97.5205 23.3135C97.279 23.1585 96.8757 23.0218 96.3105 22.9033C95.7454 22.7848 95.2738 22.6344 94.8955 22.4521C94.0661 22.0511 93.6514 21.4701 93.6514 20.709C93.6514 20.071 93.9202 19.5378 94.458 19.1094C94.9958 18.681 95.6794 18.4668 96.5088 18.4668C97.3929 18.4668 98.1061 18.6855 98.6484 19.123C99.1953 19.5605 99.4688 20.1279 99.4688 20.8252H97.8076C97.8076 20.5062 97.6891 20.2419 97.4521 20.0322C97.2152 19.818 96.9007 19.7109 96.5088 19.7109C96.1442 19.7109 95.8457 19.7952 95.6133 19.9639C95.3854 20.1325 95.2715 20.3581 95.2715 20.6406C95.2715 20.8958 95.3786 21.0941 95.5928 21.2354C95.807 21.3766 96.2399 21.5202 96.8916 21.666C97.5433 21.8073 98.0537 21.9782 98.4229 22.1787C98.7965 22.3747 99.0723 22.6117 99.25 22.8896C99.4323 23.1676 99.5234 23.5049 99.5234 23.9014C99.5234 24.5667 99.2477 25.1068 98.6963 25.5215C98.1449 25.9316 97.4225 26.1367 96.5293 26.1367C95.9232 26.1367 95.3831 26.0273 94.9092 25.8086C94.4352 25.5898 94.0661 25.2891 93.8018 24.9062C93.5374 24.5234 93.4053 24.111 93.4053 23.6689H95.0186C95.0413 24.0609 95.1895 24.3639 95.4629 24.5781C95.7363 24.7878 96.0986 24.8926 96.5498 24.8926C96.9873 24.8926 97.32 24.8105 97.5479 24.6465C97.7757 24.4779 97.8896 24.2591 97.8896 23.9902ZM103.058 16.8057V18.6035H104.363V19.834H103.058V23.9629C103.058 24.2454 103.112 24.4505 103.222 24.5781C103.336 24.7012 103.536 24.7627 103.823 24.7627C104.015 24.7627 104.208 24.7399 104.404 24.6943V25.9795C104.026 26.0843 103.661 26.1367 103.311 26.1367C102.035 26.1367 101.396 25.4326 101.396 24.0244V19.834H100.18V18.6035H101.396V16.8057H103.058ZM108.813 22.2334C108.813 21.5088 108.957 20.8571 109.244 20.2783C109.531 19.695 109.935 19.2484 110.454 18.9385C110.974 18.624 111.571 18.4668 112.245 18.4668C113.243 18.4668 114.052 18.7881 114.672 19.4307C115.296 20.0732 115.633 20.9255 115.684 21.9873L115.69 22.377C115.69 23.1061 115.549 23.7578 115.267 24.332C114.989 24.9062 114.588 25.3506 114.063 25.665C113.544 25.9795 112.942 26.1367 112.259 26.1367C111.215 26.1367 110.379 25.7904 109.75 25.0977C109.126 24.4004 108.813 23.473 108.813 22.3154V22.2334ZM110.475 22.377C110.475 23.138 110.632 23.735 110.946 24.168C111.261 24.5964 111.698 24.8105 112.259 24.8105C112.819 24.8105 113.255 24.5918 113.564 24.1543C113.879 23.7168 114.036 23.0765 114.036 22.2334C114.036 21.486 113.874 20.8936 113.551 20.4561C113.232 20.0186 112.797 19.7998 112.245 19.7998C111.703 19.7998 111.272 20.0163 110.953 20.4492C110.634 20.8776 110.475 21.5202 110.475 22.377ZM120.968 20.1211C120.749 20.0846 120.523 20.0664 120.291 20.0664C119.53 20.0664 119.017 20.3581 118.753 20.9414V26H117.092V18.6035H118.678L118.719 19.4307C119.12 18.7881 119.676 18.4668 120.387 18.4668C120.624 18.4668 120.82 18.4987 120.975 18.5625L120.968 20.1211ZM25.4355 42V35.834H24.3076V34.6035H25.4355V33.9268C25.4355 33.1064 25.6634 32.473 26.1191 32.0264C26.5749 31.5798 27.2129 31.3564 28.0332 31.3564C28.3249 31.3564 28.6348 31.3975 28.9629 31.4795L28.9219 32.7783C28.7396 32.7419 28.5277 32.7236 28.2861 32.7236C27.4932 32.7236 27.0967 33.1315 27.0967 33.9473V34.6035H28.6006V35.834H27.0967V42H25.4355ZM29.5029 38.2334C29.5029 37.5088 29.6465 36.8571 29.9336 36.2783C30.2207 35.695 30.624 35.2484 31.1436 34.9385C31.6631 34.624 32.2601 34.4668 32.9346 34.4668C33.9326 34.4668 34.7415 34.7881 35.3613 35.4307C35.9857 36.0732 36.3229 36.9255 36.373 37.9873L36.3799 38.377C36.3799 39.1061 36.2386 39.7578 35.9561 40.332C35.6781 40.9062 35.277 41.3506 34.7529 41.665C34.2334 41.9795 33.6318 42.1367 32.9482 42.1367C31.9046 42.1367 31.0684 41.7904 30.4395 41.0977C29.8151 40.4004 29.5029 39.473 29.5029 38.3154V38.2334ZM31.1641 38.377C31.1641 39.138 31.3213 39.735 31.6357 40.168C31.9502 40.5964 32.3877 40.8105 32.9482 40.8105C33.5088 40.8105 33.944 40.5918 34.2539 40.1543C34.5684 39.7168 34.7256 39.0765 34.7256 38.2334C34.7256 37.486 34.5638 36.8936 34.2402 36.4561C33.9212 36.0186 33.486 35.7998 32.9346 35.7998C32.3923 35.7998 31.9616 36.0163 31.6426 36.4492C31.3236 36.8776 31.1641 37.5202 31.1641 38.377ZM41.6572 36.1211C41.4385 36.0846 41.2129 36.0664 40.9805 36.0664C40.2194 36.0664 39.7067 36.3581 39.4424 36.9414V42H37.7812V34.6035H39.3672L39.4082 35.4307C39.8092 34.7881 40.3652 34.4668 41.0762 34.4668C41.3132 34.4668 41.5091 34.4987 41.6641 34.5625L41.6572 36.1211ZM42.2793 38.2471C42.2793 37.0986 42.5482 36.1826 43.0859 35.499C43.6283 34.8109 44.346 34.4668 45.2393 34.4668C46.0824 34.4668 46.7454 34.7607 47.2285 35.3486L47.3037 34.6035H48.8008V41.7744C48.8008 42.7451 48.4977 43.5107 47.8916 44.0713C47.29 44.6318 46.4766 44.9121 45.4512 44.9121C44.9089 44.9121 44.3779 44.7982 43.8584 44.5703C43.3434 44.347 42.9515 44.0531 42.6826 43.6885L43.4688 42.6904C43.9792 43.2965 44.6081 43.5996 45.3555 43.5996C45.9069 43.5996 46.3421 43.4492 46.6611 43.1484C46.9801 42.8522 47.1396 42.4147 47.1396 41.8359V41.3369C46.6611 41.8701 46.0231 42.1367 45.2256 42.1367C44.3597 42.1367 43.651 41.7926 43.0996 41.1045C42.5527 40.4163 42.2793 39.4639 42.2793 38.2471ZM43.9336 38.3906C43.9336 39.1335 44.084 39.7191 44.3848 40.1475C44.6901 40.5713 45.1117 40.7832 45.6494 40.7832C46.3193 40.7832 46.8161 40.4961 47.1396 39.9219V36.668C46.8252 36.1074 46.333 35.8271 45.6631 35.8271C45.1162 35.8271 44.6901 36.0436 44.3848 36.4766C44.084 36.9095 43.9336 37.5475 43.9336 38.3906ZM50.2021 38.2334C50.2021 37.5088 50.3457 36.8571 50.6328 36.2783C50.9199 35.695 51.3232 35.2484 51.8428 34.9385C52.3623 34.624 52.9593 34.4668 53.6338 34.4668C54.6318 34.4668 55.4408 34.7881 56.0605 35.4307C56.6849 36.0732 57.0221 36.9255 57.0723 37.9873L57.0791 38.377C57.0791 39.1061 56.9378 39.7578 56.6553 40.332C56.3773 40.9062 55.9762 41.3506 55.4521 41.665C54.9326 41.9795 54.3311 42.1367 53.6475 42.1367C52.6038 42.1367 51.7676 41.7904 51.1387 41.0977C50.5143 40.4004 50.2021 39.473 50.2021 38.3154V38.2334ZM51.8633 38.377C51.8633 39.138 52.0205 39.735 52.335 40.168C52.6494 40.5964 53.0869 40.8105 53.6475 40.8105C54.208 40.8105 54.6432 40.5918 54.9531 40.1543C55.2676 39.7168 55.4248 39.0765 55.4248 38.2334C55.4248 37.486 55.263 36.8936 54.9395 36.4561C54.6204 36.0186 54.1852 35.7998 53.6338 35.7998C53.0915 35.7998 52.6608 36.0163 52.3418 36.4492C52.0228 36.8776 51.8633 37.5202 51.8633 38.377ZM60.5654 32.8057V34.6035H61.8711V35.834H60.5654V39.9629C60.5654 40.2454 60.6201 40.4505 60.7295 40.5781C60.8434 40.7012 61.0439 40.7627 61.3311 40.7627C61.5225 40.7627 61.7161 40.7399 61.9121 40.6943V41.9795C61.5339 42.0843 61.1693 42.1367 60.8184 42.1367C59.5423 42.1367 58.9043 41.4326 58.9043 40.0244V35.834H57.6875V34.6035H58.9043V32.8057H60.5654ZM65.2275 32.8057V34.6035H66.5332V35.834H65.2275V39.9629C65.2275 40.2454 65.2822 40.4505 65.3916 40.5781C65.5055 40.7012 65.7061 40.7627 65.9932 40.7627C66.1846 40.7627 66.3783 40.7399 66.5742 40.6943V41.9795C66.196 42.0843 65.8314 42.1367 65.4805 42.1367C64.2044 42.1367 63.5664 41.4326 63.5664 40.0244V35.834H62.3496V34.6035H63.5664V32.8057H65.2275ZM71.0654 42.1367C70.0127 42.1367 69.1582 41.8063 68.502 41.1455C67.8503 40.4801 67.5244 39.596 67.5244 38.4932V38.2881C67.5244 37.5498 67.6657 36.8913 67.9482 36.3125C68.2354 35.7292 68.6364 35.2757 69.1514 34.9521C69.6663 34.6286 70.2406 34.4668 70.874 34.4668C71.8812 34.4668 72.6582 34.7881 73.2051 35.4307C73.7565 36.0732 74.0322 36.9824 74.0322 38.1582V38.8281H69.1992C69.2493 39.4388 69.4521 39.9219 69.8076 40.2773C70.1676 40.6328 70.6188 40.8105 71.1611 40.8105C71.9222 40.8105 72.542 40.5029 73.0205 39.8877L73.916 40.7422C73.6198 41.1842 73.2233 41.5283 72.7266 41.7744C72.2344 42.016 71.6807 42.1367 71.0654 42.1367ZM70.8672 35.7998C70.4115 35.7998 70.0423 35.9593 69.7598 36.2783C69.4818 36.5973 69.304 37.0417 69.2266 37.6113H72.3916V37.4883C72.3551 36.9323 72.207 36.513 71.9473 36.2305C71.6875 35.9434 71.3275 35.7998 70.8672 35.7998ZM76.8691 34.6035L76.917 35.458C77.4639 34.7972 78.1816 34.4668 79.0703 34.4668C80.6107 34.4668 81.3945 35.3486 81.4219 37.1123V42H79.7607V37.208C79.7607 36.7386 79.6582 36.3923 79.4531 36.1689C79.2526 35.9411 78.9222 35.8271 78.4619 35.8271C77.792 35.8271 77.293 36.1302 76.9648 36.7363V42H75.3037V34.6035H76.8691ZM89.6455 40.8105C90.0602 40.8105 90.4043 40.6898 90.6777 40.4482C90.9512 40.2067 91.097 39.9082 91.1152 39.5527H92.6807C92.6624 40.013 92.5189 40.4437 92.25 40.8447C91.9811 41.2412 91.6165 41.5557 91.1562 41.7881C90.696 42.0205 90.1992 42.1367 89.666 42.1367C88.6315 42.1367 87.8112 41.8018 87.2051 41.1318C86.599 40.4619 86.2959 39.5368 86.2959 38.3564V38.1855C86.2959 37.0599 86.5967 36.1598 87.1982 35.4854C87.7998 34.8063 88.6201 34.4668 89.6592 34.4668C90.5387 34.4668 91.2542 34.7243 91.8057 35.2393C92.3617 35.7497 92.6533 36.4219 92.6807 37.2559H91.1152C91.097 36.832 90.9512 36.4834 90.6777 36.21C90.4089 35.9365 90.0648 35.7998 89.6455 35.7998C89.1077 35.7998 88.693 35.9958 88.4014 36.3877C88.1097 36.7751 87.9616 37.3652 87.957 38.1582V38.4248C87.957 39.2269 88.1006 39.8262 88.3877 40.2227C88.6794 40.6146 89.0986 40.8105 89.6455 40.8105ZM97.8076 36.1211C97.5889 36.0846 97.3633 36.0664 97.1309 36.0664C96.3698 36.0664 95.8571 36.3581 95.5928 36.9414V42H93.9316V34.6035H95.5176L95.5586 35.4307C95.9596 34.7881 96.5156 34.4668 97.2266 34.4668C97.4635 34.4668 97.6595 34.4987 97.8145 34.5625L97.8076 36.1211ZM101.978 42.1367C100.925 42.1367 100.07 41.8063 99.4141 41.1455C98.7624 40.4801 98.4365 39.596 98.4365 38.4932V38.2881C98.4365 37.5498 98.5778 36.8913 98.8604 36.3125C99.1475 35.7292 99.5485 35.2757 100.063 34.9521C100.578 34.6286 101.153 34.4668 101.786 34.4668C102.793 34.4668 103.57 34.7881 104.117 35.4307C104.669 36.0732 104.944 36.9824 104.944 38.1582V38.8281H100.111C100.161 39.4388 100.364 39.9219 100.72 40.2773C101.08 40.6328 101.531 40.8105 102.073 40.8105C102.834 40.8105 103.454 40.5029 103.933 39.8877L104.828 40.7422C104.532 41.1842 104.135 41.5283 103.639 41.7744C103.146 42.016 102.593 42.1367 101.978 42.1367ZM101.779 35.7998C101.324 35.7998 100.954 35.9593 100.672 36.2783C100.394 36.5973 100.216 37.0417 100.139 37.6113H103.304V37.4883C103.267 36.9323 103.119 36.513 102.859 36.2305C102.6 35.9434 102.24 35.7998 101.779 35.7998ZM105.929 38.2471C105.929 37.1077 106.193 36.194 106.722 35.5059C107.25 34.8132 107.959 34.4668 108.848 34.4668C109.632 34.4668 110.265 34.7402 110.748 35.2871V31.5H112.409V42H110.905L110.823 41.2344C110.326 41.8359 109.663 42.1367 108.834 42.1367C107.968 42.1367 107.266 41.7881 106.729 41.0908C106.195 40.3936 105.929 39.4456 105.929 38.2471ZM107.59 38.3906C107.59 39.1426 107.733 39.7305 108.021 40.1543C108.312 40.5736 108.725 40.7832 109.258 40.7832C109.937 40.7832 110.434 40.4801 110.748 39.874V36.7158C110.443 36.1234 109.951 35.8271 109.271 35.8271C108.734 35.8271 108.319 36.0413 108.027 36.4697C107.736 36.8936 107.59 37.5339 107.59 38.3906ZM115.909 42H114.248V34.6035H115.909V42ZM114.146 32.6826C114.146 32.4274 114.225 32.2155 114.385 32.0469C114.549 31.8783 114.781 31.7939 115.082 31.7939C115.383 31.7939 115.615 31.8783 115.779 32.0469C115.943 32.2155 116.025 32.4274 116.025 32.6826C116.025 32.9333 115.943 33.1429 115.779 33.3115C115.615 33.4756 115.383 33.5576 115.082 33.5576C114.781 33.5576 114.549 33.4756 114.385 33.3115C114.225 33.1429 114.146 32.9333 114.146 32.6826ZM119.806 32.8057V34.6035H121.111V35.834H119.806V39.9629C119.806 40.2454 119.86 40.4505 119.97 40.5781C120.084 40.7012 120.284 40.7627 120.571 40.7627C120.763 40.7627 120.956 40.7399 121.152 40.6943V41.9795C120.774 42.0843 120.41 42.1367 120.059 42.1367C118.783 42.1367 118.145 41.4326 118.145 40.0244V35.834H116.928V34.6035H118.145V32.8057H119.806ZM128.911 40.8105C129.326 40.8105 129.67 40.6898 129.943 40.4482C130.217 40.2067 130.363 39.9082 130.381 39.5527H131.946C131.928 40.013 131.785 40.4437 131.516 40.8447C131.247 41.2412 130.882 41.5557 130.422 41.7881C129.962 42.0205 129.465 42.1367 128.932 42.1367C127.897 42.1367 127.077 41.8018 126.471 41.1318C125.865 40.4619 125.562 39.5368 125.562 38.3564V38.1855C125.562 37.0599 125.862 36.1598 126.464 35.4854C127.065 34.8063 127.886 34.4668 128.925 34.4668C129.804 34.4668 130.52 34.7243 131.071 35.2393C131.627 35.7497 131.919 36.4219 131.946 37.2559H130.381C130.363 36.832 130.217 36.4834 129.943 36.21C129.674 35.9365 129.33 35.7998 128.911 35.7998C128.373 35.7998 127.959 35.9958 127.667 36.3877C127.375 36.7751 127.227 37.3652 127.223 38.1582V38.4248C127.223 39.2269 127.366 39.8262 127.653 40.2227C127.945 40.6146 128.364 40.8105 128.911 40.8105ZM137.62 42C137.547 41.8587 137.483 41.6286 137.429 41.3096C136.9 41.861 136.253 42.1367 135.487 42.1367C134.744 42.1367 134.138 41.9248 133.669 41.501C133.2 41.0771 132.965 40.5531 132.965 39.9287C132.965 39.1403 133.257 38.5365 133.84 38.1172C134.428 37.6934 135.266 37.4814 136.355 37.4814H137.374V36.9961C137.374 36.6133 137.267 36.3079 137.053 36.0801C136.839 35.8477 136.513 35.7314 136.075 35.7314C135.697 35.7314 135.387 35.8271 135.146 36.0186C134.904 36.2054 134.783 36.4447 134.783 36.7363H133.122C133.122 36.3307 133.257 35.9525 133.525 35.6016C133.794 35.2461 134.159 34.9681 134.619 34.7676C135.084 34.5671 135.601 34.4668 136.171 34.4668C137.037 34.4668 137.727 34.6855 138.242 35.123C138.757 35.556 139.021 36.1667 139.035 36.9551V40.291C139.035 40.9564 139.129 41.4873 139.315 41.8838V42H137.62ZM135.795 40.8037C136.123 40.8037 136.431 40.724 136.718 40.5645C137.009 40.4049 137.228 40.1908 137.374 39.9219V38.5273H136.479C135.863 38.5273 135.401 38.6344 135.091 38.8486C134.781 39.0628 134.626 39.3659 134.626 39.7578C134.626 40.0768 134.731 40.332 134.94 40.5234C135.155 40.7103 135.439 40.8037 135.795 40.8037ZM144.647 36.1211C144.429 36.0846 144.203 36.0664 143.971 36.0664C143.21 36.0664 142.697 36.3581 142.433 36.9414V42H140.771V34.6035H142.357L142.398 35.4307C142.799 34.7881 143.355 34.4668 144.066 34.4668C144.303 34.4668 144.499 34.4987 144.654 34.5625L144.647 36.1211ZM145.249 38.2471C145.249 37.1077 145.513 36.194 146.042 35.5059C146.571 34.8132 147.279 34.4668 148.168 34.4668C148.952 34.4668 149.585 34.7402 150.068 35.2871V31.5H151.729V42H150.226L150.144 41.2344C149.647 41.8359 148.984 42.1367 148.154 42.1367C147.288 42.1367 146.587 41.7881 146.049 41.0908C145.516 40.3936 145.249 39.4456 145.249 38.2471ZM146.91 38.3906C146.91 39.1426 147.054 39.7305 147.341 40.1543C147.632 40.5736 148.045 40.7832 148.578 40.7832C149.257 40.7832 149.754 40.4801 150.068 39.874V36.7158C149.763 36.1234 149.271 35.8271 148.592 35.8271C148.054 35.8271 147.639 36.0413 147.348 36.4697C147.056 36.8936 146.91 37.5339 146.91 38.3906ZM157.608 39.9902C157.608 39.694 157.485 39.4684 157.239 39.3135C156.998 39.1585 156.594 39.0218 156.029 38.9033C155.464 38.7848 154.993 38.6344 154.614 38.4521C153.785 38.0511 153.37 37.4701 153.37 36.709C153.37 36.071 153.639 35.5378 154.177 35.1094C154.715 34.681 155.398 34.4668 156.228 34.4668C157.112 34.4668 157.825 34.6855 158.367 35.123C158.914 35.5605 159.188 36.1279 159.188 36.8252H157.526C157.526 36.5062 157.408 36.2419 157.171 36.0322C156.934 35.818 156.619 35.7109 156.228 35.7109C155.863 35.7109 155.564 35.7952 155.332 35.9639C155.104 36.1325 154.99 36.3581 154.99 36.6406C154.99 36.8958 155.097 37.0941 155.312 37.2354C155.526 37.3766 155.959 37.5202 156.61 37.666C157.262 37.8073 157.772 37.9782 158.142 38.1787C158.515 38.3747 158.791 38.6117 158.969 38.8896C159.151 39.1676 159.242 39.5049 159.242 39.9014C159.242 40.5667 158.966 41.1068 158.415 41.5215C157.864 41.9316 157.141 42.1367 156.248 42.1367C155.642 42.1367 155.102 42.0273 154.628 41.8086C154.154 41.5898 153.785 41.2891 153.521 40.9062C153.256 40.5234 153.124 40.111 153.124 39.6689H154.737C154.76 40.0609 154.908 40.3639 155.182 40.5781C155.455 40.7878 155.817 40.8926 156.269 40.8926C156.706 40.8926 157.039 40.8105 157.267 40.6465C157.494 40.4779 157.608 40.2591 157.608 39.9902Z" fill="white"/>
<rect x="159" y="89" width="171" height="62" rx="10" fill="black"/>
<rect x="159.38" y="89.38" width="170.24" height="61.2399" rx="9.61996" stroke="white" stroke-opacity="0.5" stroke-width="0.76007"/>
<path d="M185.907 117H184.178L179.741 109.938V117H178.012V107.047H179.741L184.191 114.136V107.047H185.907V117ZM187.479 113.233C187.479 112.509 187.623 111.857 187.91 111.278C188.197 110.695 188.601 110.248 189.12 109.938C189.64 109.624 190.237 109.467 190.911 109.467C191.909 109.467 192.718 109.788 193.338 110.431C193.962 111.073 194.299 111.925 194.35 112.987L194.356 113.377C194.356 114.106 194.215 114.758 193.933 115.332C193.655 115.906 193.254 116.351 192.729 116.665C192.21 116.979 191.608 117.137 190.925 117.137C189.881 117.137 189.045 116.79 188.416 116.098C187.792 115.4 187.479 114.473 187.479 113.315V113.233ZM189.141 113.377C189.141 114.138 189.298 114.735 189.612 115.168C189.927 115.596 190.364 115.811 190.925 115.811C191.485 115.811 191.921 115.592 192.23 115.154C192.545 114.717 192.702 114.076 192.702 113.233C192.702 112.486 192.54 111.894 192.217 111.456C191.898 111.019 191.463 110.8 190.911 110.8C190.369 110.8 189.938 111.016 189.619 111.449C189.3 111.878 189.141 112.52 189.141 113.377ZM200.81 109.604L200.857 110.376C201.377 109.77 202.088 109.467 202.99 109.467C203.979 109.467 204.656 109.845 205.021 110.602C205.558 109.845 206.315 109.467 207.29 109.467C208.106 109.467 208.712 109.692 209.108 110.144C209.509 110.595 209.715 111.26 209.724 112.14V117H208.062V112.188C208.062 111.718 207.96 111.374 207.755 111.155C207.55 110.937 207.21 110.827 206.736 110.827C206.358 110.827 206.048 110.93 205.807 111.135C205.57 111.335 205.403 111.6 205.308 111.928L205.314 117H203.653V112.133C203.631 111.262 203.186 110.827 202.32 110.827C201.655 110.827 201.183 111.098 200.905 111.641V117H199.244V109.604H200.81ZM211.118 113.233C211.118 112.509 211.262 111.857 211.549 111.278C211.836 110.695 212.239 110.248 212.759 109.938C213.278 109.624 213.875 109.467 214.55 109.467C215.548 109.467 216.357 109.788 216.977 110.431C217.601 111.073 217.938 111.925 217.988 112.987L217.995 113.377C217.995 114.106 217.854 114.758 217.571 115.332C217.293 115.906 216.892 116.351 216.368 116.665C215.849 116.979 215.247 117.137 214.563 117.137C213.52 117.137 212.684 116.79 212.055 116.098C211.43 115.4 211.118 114.473 211.118 113.315V113.233ZM212.779 113.377C212.779 114.138 212.937 114.735 213.251 115.168C213.565 115.596 214.003 115.811 214.563 115.811C215.124 115.811 215.559 115.592 215.869 115.154C216.184 114.717 216.341 114.076 216.341 113.233C216.341 112.486 216.179 111.894 215.855 111.456C215.536 111.019 215.101 110.8 214.55 110.8C214.007 110.8 213.577 111.016 213.258 111.449C212.939 111.878 212.779 112.52 212.779 113.377ZM223.272 111.121C223.054 111.085 222.828 111.066 222.596 111.066C221.835 111.066 221.322 111.358 221.058 111.941V117H219.396V109.604H220.982L221.023 110.431C221.424 109.788 221.98 109.467 222.691 109.467C222.928 109.467 223.124 109.499 223.279 109.562L223.272 111.121ZM227.442 117.137C226.39 117.137 225.535 116.806 224.879 116.146C224.227 115.48 223.901 114.596 223.901 113.493V113.288C223.901 112.55 224.043 111.891 224.325 111.312C224.612 110.729 225.013 110.276 225.528 109.952C226.043 109.629 226.618 109.467 227.251 109.467C228.258 109.467 229.035 109.788 229.582 110.431C230.133 111.073 230.409 111.982 230.409 113.158V113.828H225.576C225.626 114.439 225.829 114.922 226.185 115.277C226.545 115.633 226.996 115.811 227.538 115.811C228.299 115.811 228.919 115.503 229.397 114.888L230.293 115.742C229.997 116.184 229.6 116.528 229.104 116.774C228.611 117.016 228.058 117.137 227.442 117.137ZM227.244 110.8C226.788 110.8 226.419 110.959 226.137 111.278C225.859 111.597 225.681 112.042 225.604 112.611H228.769V112.488C228.732 111.932 228.584 111.513 228.324 111.23C228.064 110.943 227.704 110.8 227.244 110.8ZM236.958 117H235.297V106.5H236.958V117ZM238.462 113.233C238.462 112.509 238.605 111.857 238.893 111.278C239.18 110.695 239.583 110.248 240.103 109.938C240.622 109.624 241.219 109.467 241.894 109.467C242.892 109.467 243.701 109.788 244.32 110.431C244.945 111.073 245.282 111.925 245.332 112.987L245.339 113.377C245.339 114.106 245.198 114.758 244.915 115.332C244.637 115.906 244.236 116.351 243.712 116.665C243.192 116.979 242.591 117.137 241.907 117.137C240.864 117.137 240.027 116.79 239.398 116.098C238.774 115.4 238.462 114.473 238.462 113.315V113.233ZM240.123 113.377C240.123 114.138 240.28 114.735 240.595 115.168C240.909 115.596 241.347 115.811 241.907 115.811C242.468 115.811 242.903 115.592 243.213 115.154C243.527 114.717 243.685 114.076 243.685 113.233C243.685 112.486 243.523 111.894 243.199 111.456C242.88 111.019 242.445 110.8 241.894 110.8C241.351 110.8 240.921 111.016 240.602 111.449C240.283 111.878 240.123 112.52 240.123 113.377ZM250.89 114.99C250.89 114.694 250.767 114.468 250.521 114.313C250.279 114.159 249.876 114.022 249.311 113.903C248.745 113.785 248.274 113.634 247.896 113.452C247.066 113.051 246.651 112.47 246.651 111.709C246.651 111.071 246.92 110.538 247.458 110.109C247.996 109.681 248.679 109.467 249.509 109.467C250.393 109.467 251.106 109.686 251.648 110.123C252.195 110.561 252.469 111.128 252.469 111.825H250.808C250.808 111.506 250.689 111.242 250.452 111.032C250.215 110.818 249.901 110.711 249.509 110.711C249.144 110.711 248.846 110.795 248.613 110.964C248.385 111.132 248.271 111.358 248.271 111.641C248.271 111.896 248.379 112.094 248.593 112.235C248.807 112.377 249.24 112.52 249.892 112.666C250.543 112.807 251.054 112.978 251.423 113.179C251.797 113.375 252.072 113.612 252.25 113.89C252.432 114.168 252.523 114.505 252.523 114.901C252.523 115.567 252.248 116.107 251.696 116.521C251.145 116.932 250.423 117.137 249.529 117.137C248.923 117.137 248.383 117.027 247.909 116.809C247.435 116.59 247.066 116.289 246.802 115.906C246.537 115.523 246.405 115.111 246.405 114.669H248.019C248.041 115.061 248.189 115.364 248.463 115.578C248.736 115.788 249.099 115.893 249.55 115.893C249.987 115.893 250.32 115.811 250.548 115.646C250.776 115.478 250.89 115.259 250.89 114.99ZM256.058 107.806V109.604H257.363V110.834H256.058V114.963C256.058 115.245 256.112 115.451 256.222 115.578C256.336 115.701 256.536 115.763 256.823 115.763C257.015 115.763 257.208 115.74 257.404 115.694V116.979C257.026 117.084 256.661 117.137 256.311 117.137C255.035 117.137 254.396 116.433 254.396 115.024V110.834H253.18V109.604H254.396V107.806H256.058ZM261.813 113.233C261.813 112.509 261.957 111.857 262.244 111.278C262.531 110.695 262.935 110.248 263.454 109.938C263.974 109.624 264.571 109.467 265.245 109.467C266.243 109.467 267.052 109.788 267.672 110.431C268.296 111.073 268.633 111.925 268.684 112.987L268.69 113.377C268.69 114.106 268.549 114.758 268.267 115.332C267.989 115.906 267.588 116.351 267.063 116.665C266.544 116.979 265.942 117.137 265.259 117.137C264.215 117.137 263.379 116.79 262.75 116.098C262.126 115.4 261.813 114.473 261.813 113.315V113.233ZM263.475 113.377C263.475 114.138 263.632 114.735 263.946 115.168C264.261 115.596 264.698 115.811 265.259 115.811C265.819 115.811 266.255 115.592 266.564 115.154C266.879 114.717 267.036 114.076 267.036 113.233C267.036 112.486 266.874 111.894 266.551 111.456C266.232 111.019 265.797 110.8 265.245 110.8C264.703 110.8 264.272 111.016 263.953 111.449C263.634 111.878 263.475 112.52 263.475 113.377ZM273.968 111.121C273.749 111.085 273.523 111.066 273.291 111.066C272.53 111.066 272.017 111.358 271.753 111.941V117H270.092V109.604H271.678L271.719 110.431C272.12 109.788 272.676 109.467 273.387 109.467C273.624 109.467 273.82 109.499 273.975 109.562L273.968 111.121ZM178.436 133V126.834H177.308V125.604H178.436V124.927C178.436 124.106 178.663 123.473 179.119 123.026C179.575 122.58 180.213 122.356 181.033 122.356C181.325 122.356 181.635 122.397 181.963 122.479L181.922 123.778C181.74 123.742 181.528 123.724 181.286 123.724C180.493 123.724 180.097 124.132 180.097 124.947V125.604H181.601V126.834H180.097V133H178.436ZM182.503 129.233C182.503 128.509 182.646 127.857 182.934 127.278C183.221 126.695 183.624 126.248 184.144 125.938C184.663 125.624 185.26 125.467 185.935 125.467C186.933 125.467 187.742 125.788 188.361 126.431C188.986 127.073 189.323 127.925 189.373 128.987L189.38 129.377C189.38 130.106 189.239 130.758 188.956 131.332C188.678 131.906 188.277 132.351 187.753 132.665C187.233 132.979 186.632 133.137 185.948 133.137C184.905 133.137 184.068 132.79 183.439 132.098C182.815 131.4 182.503 130.473 182.503 129.315V129.233ZM184.164 129.377C184.164 130.138 184.321 130.735 184.636 131.168C184.95 131.596 185.388 131.811 185.948 131.811C186.509 131.811 186.944 131.592 187.254 131.154C187.568 130.717 187.726 130.076 187.726 129.233C187.726 128.486 187.564 127.894 187.24 127.456C186.921 127.019 186.486 126.8 185.935 126.8C185.392 126.8 184.962 127.016 184.643 127.449C184.324 127.878 184.164 128.52 184.164 129.377ZM194.657 127.121C194.438 127.085 194.213 127.066 193.98 127.066C193.219 127.066 192.707 127.358 192.442 127.941V133H190.781V125.604H192.367L192.408 126.431C192.809 125.788 193.365 125.467 194.076 125.467C194.313 125.467 194.509 125.499 194.664 125.562L194.657 127.121ZM195.279 129.247C195.279 128.099 195.548 127.183 196.086 126.499C196.628 125.811 197.346 125.467 198.239 125.467C199.082 125.467 199.745 125.761 200.229 126.349L200.304 125.604H201.801V132.774C201.801 133.745 201.498 134.511 200.892 135.071C200.29 135.632 199.477 135.912 198.451 135.912C197.909 135.912 197.378 135.798 196.858 135.57C196.343 135.347 195.951 135.053 195.683 134.688L196.469 133.69C196.979 134.297 197.608 134.6 198.355 134.6C198.907 134.6 199.342 134.449 199.661 134.148C199.98 133.852 200.14 133.415 200.14 132.836V132.337C199.661 132.87 199.023 133.137 198.226 133.137C197.36 133.137 196.651 132.793 196.1 132.104C195.553 131.416 195.279 130.464 195.279 129.247ZM196.934 129.391C196.934 130.133 197.084 130.719 197.385 131.147C197.69 131.571 198.112 131.783 198.649 131.783C199.319 131.783 199.816 131.496 200.14 130.922V127.668C199.825 127.107 199.333 126.827 198.663 126.827C198.116 126.827 197.69 127.044 197.385 127.477C197.084 127.91 196.934 128.548 196.934 129.391ZM203.202 129.233C203.202 128.509 203.346 127.857 203.633 127.278C203.92 126.695 204.323 126.248 204.843 125.938C205.362 125.624 205.959 125.467 206.634 125.467C207.632 125.467 208.441 125.788 209.061 126.431C209.685 127.073 210.022 127.925 210.072 128.987L210.079 129.377C210.079 130.106 209.938 130.758 209.655 131.332C209.377 131.906 208.976 132.351 208.452 132.665C207.933 132.979 207.331 133.137 206.647 133.137C205.604 133.137 204.768 132.79 204.139 132.098C203.514 131.4 203.202 130.473 203.202 129.315V129.233ZM204.863 129.377C204.863 130.138 205.021 130.735 205.335 131.168C205.649 131.596 206.087 131.811 206.647 131.811C207.208 131.811 207.643 131.592 207.953 131.154C208.268 130.717 208.425 130.076 208.425 129.233C208.425 128.486 208.263 127.894 207.939 127.456C207.62 127.019 207.185 126.8 206.634 126.8C206.091 126.8 205.661 127.016 205.342 127.449C205.023 127.878 204.863 128.52 204.863 129.377ZM213.565 123.806V125.604H214.871V126.834H213.565V130.963C213.565 131.245 213.62 131.451 213.729 131.578C213.843 131.701 214.044 131.763 214.331 131.763C214.522 131.763 214.716 131.74 214.912 131.694V132.979C214.534 133.084 214.169 133.137 213.818 133.137C212.542 133.137 211.904 132.433 211.904 131.024V126.834H210.688V125.604H211.904V123.806H213.565ZM218.228 123.806V125.604H219.533V126.834H218.228V130.963C218.228 131.245 218.282 131.451 218.392 131.578C218.506 131.701 218.706 131.763 218.993 131.763C219.185 131.763 219.378 131.74 219.574 131.694V132.979C219.196 133.084 218.831 133.137 218.48 133.137C217.204 133.137 216.566 132.433 216.566 131.024V126.834H215.35V125.604H216.566V123.806H218.228ZM224.065 133.137C223.013 133.137 222.158 132.806 221.502 132.146C220.85 131.48 220.524 130.596 220.524 129.493V129.288C220.524 128.55 220.666 127.891 220.948 127.312C221.235 126.729 221.636 126.276 222.151 125.952C222.666 125.629 223.241 125.467 223.874 125.467C224.881 125.467 225.658 125.788 226.205 126.431C226.757 127.073 227.032 127.982 227.032 129.158V129.828H222.199C222.249 130.439 222.452 130.922 222.808 131.277C223.168 131.633 223.619 131.811 224.161 131.811C224.922 131.811 225.542 131.503 226.021 130.888L226.916 131.742C226.62 132.184 226.223 132.528 225.727 132.774C225.234 133.016 224.681 133.137 224.065 133.137ZM223.867 126.8C223.411 126.8 223.042 126.959 222.76 127.278C222.482 127.597 222.304 128.042 222.227 128.611H225.392V128.488C225.355 127.932 225.207 127.513 224.947 127.23C224.688 126.943 224.327 126.8 223.867 126.8ZM229.869 125.604L229.917 126.458C230.464 125.797 231.182 125.467 232.07 125.467C233.611 125.467 234.395 126.349 234.422 128.112V133H232.761V128.208C232.761 127.739 232.658 127.392 232.453 127.169C232.253 126.941 231.922 126.827 231.462 126.827C230.792 126.827 230.293 127.13 229.965 127.736V133H228.304V125.604H229.869ZM242.646 131.811C243.06 131.811 243.404 131.69 243.678 131.448C243.951 131.207 244.097 130.908 244.115 130.553H245.681C245.662 131.013 245.519 131.444 245.25 131.845C244.981 132.241 244.617 132.556 244.156 132.788C243.696 133.021 243.199 133.137 242.666 133.137C241.632 133.137 240.811 132.802 240.205 132.132C239.599 131.462 239.296 130.537 239.296 129.356V129.186C239.296 128.06 239.597 127.16 240.198 126.485C240.8 125.806 241.62 125.467 242.659 125.467C243.539 125.467 244.254 125.724 244.806 126.239C245.362 126.75 245.653 127.422 245.681 128.256H244.115C244.097 127.832 243.951 127.483 243.678 127.21C243.409 126.937 243.065 126.8 242.646 126.8C242.108 126.8 241.693 126.996 241.401 127.388C241.11 127.775 240.962 128.365 240.957 129.158V129.425C240.957 130.227 241.101 130.826 241.388 131.223C241.679 131.615 242.099 131.811 242.646 131.811ZM250.808 127.121C250.589 127.085 250.363 127.066 250.131 127.066C249.37 127.066 248.857 127.358 248.593 127.941V133H246.932V125.604H248.518L248.559 126.431C248.96 125.788 249.516 125.467 250.227 125.467C250.464 125.467 250.66 125.499 250.814 125.562L250.808 127.121ZM254.978 133.137C253.925 133.137 253.07 132.806 252.414 132.146C251.762 131.48 251.437 130.596 251.437 129.493V129.288C251.437 128.55 251.578 127.891 251.86 127.312C252.147 126.729 252.549 126.276 253.063 125.952C253.578 125.629 254.153 125.467 254.786 125.467C255.793 125.467 256.57 125.788 257.117 126.431C257.669 127.073 257.944 127.982 257.944 129.158V129.828H253.111C253.161 130.439 253.364 130.922 253.72 131.277C254.08 131.633 254.531 131.811 255.073 131.811C255.834 131.811 256.454 131.503 256.933 130.888L257.828 131.742C257.532 132.184 257.135 132.528 256.639 132.774C256.146 133.016 255.593 133.137 254.978 133.137ZM254.779 126.8C254.324 126.8 253.954 126.959 253.672 127.278C253.394 127.597 253.216 128.042 253.139 128.611H256.304V128.488C256.267 127.932 256.119 127.513 255.859 127.23C255.6 126.943 255.24 126.8 254.779 126.8ZM258.929 129.247C258.929 128.108 259.193 127.194 259.722 126.506C260.25 125.813 260.959 125.467 261.848 125.467C262.632 125.467 263.265 125.74 263.748 126.287V122.5H265.409V133H263.905L263.823 132.234C263.326 132.836 262.663 133.137 261.834 133.137C260.968 133.137 260.266 132.788 259.729 132.091C259.195 131.394 258.929 130.446 258.929 129.247ZM260.59 129.391C260.59 130.143 260.733 130.73 261.021 131.154C261.312 131.574 261.725 131.783 262.258 131.783C262.937 131.783 263.434 131.48 263.748 130.874V127.716C263.443 127.123 262.951 126.827 262.271 126.827C261.734 126.827 261.319 127.041 261.027 127.47C260.736 127.894 260.59 128.534 260.59 129.391ZM268.909 133H267.248V125.604H268.909V133ZM267.146 123.683C267.146 123.427 267.225 123.215 267.385 123.047C267.549 122.878 267.781 122.794 268.082 122.794C268.383 122.794 268.615 122.878 268.779 123.047C268.943 123.215 269.025 123.427 269.025 123.683C269.025 123.933 268.943 124.143 268.779 124.312C268.615 124.476 268.383 124.558 268.082 124.558C267.781 124.558 267.549 124.476 267.385 124.312C267.225 124.143 267.146 123.933 267.146 123.683ZM272.806 123.806V125.604H274.111V126.834H272.806V130.963C272.806 131.245 272.86 131.451 272.97 131.578C273.084 131.701 273.284 131.763 273.571 131.763C273.763 131.763 273.956 131.74 274.152 131.694V132.979C273.774 133.084 273.41 133.137 273.059 133.137C271.783 133.137 271.145 132.433 271.145 131.024V126.834H269.928V125.604H271.145V123.806H272.806ZM281.911 131.811C282.326 131.811 282.67 131.69 282.943 131.448C283.217 131.207 283.363 130.908 283.381 130.553H284.946C284.928 131.013 284.785 131.444 284.516 131.845C284.247 132.241 283.882 132.556 283.422 132.788C282.962 133.021 282.465 133.137 281.932 133.137C280.897 133.137 280.077 132.802 279.471 132.132C278.865 131.462 278.562 130.537 278.562 129.356V129.186C278.562 128.06 278.862 127.16 279.464 126.485C280.065 125.806 280.886 125.467 281.925 125.467C282.804 125.467 283.52 125.724 284.071 126.239C284.627 126.75 284.919 127.422 284.946 128.256H283.381C283.363 127.832 283.217 127.483 282.943 127.21C282.674 126.937 282.33 126.8 281.911 126.8C281.373 126.8 280.959 126.996 280.667 127.388C280.375 127.775 280.227 128.365 280.223 129.158V129.425C280.223 130.227 280.366 130.826 280.653 131.223C280.945 131.615 281.364 131.811 281.911 131.811ZM290.62 133C290.547 132.859 290.483 132.629 290.429 132.31C289.9 132.861 289.253 133.137 288.487 133.137C287.744 133.137 287.138 132.925 286.669 132.501C286.2 132.077 285.965 131.553 285.965 130.929C285.965 130.14 286.257 129.536 286.84 129.117C287.428 128.693 288.266 128.481 289.355 128.481H290.374V127.996C290.374 127.613 290.267 127.308 290.053 127.08C289.839 126.848 289.513 126.731 289.075 126.731C288.697 126.731 288.387 126.827 288.146 127.019C287.904 127.205 287.783 127.445 287.783 127.736H286.122C286.122 127.331 286.257 126.952 286.525 126.602C286.794 126.246 287.159 125.968 287.619 125.768C288.084 125.567 288.601 125.467 289.171 125.467C290.037 125.467 290.727 125.686 291.242 126.123C291.757 126.556 292.021 127.167 292.035 127.955V131.291C292.035 131.956 292.129 132.487 292.315 132.884V133H290.62ZM288.795 131.804C289.123 131.804 289.431 131.724 289.718 131.564C290.009 131.405 290.228 131.191 290.374 130.922V129.527H289.479C288.863 129.527 288.401 129.634 288.091 129.849C287.781 130.063 287.626 130.366 287.626 130.758C287.626 131.077 287.731 131.332 287.94 131.523C288.155 131.71 288.439 131.804 288.795 131.804ZM297.647 127.121C297.429 127.085 297.203 127.066 296.971 127.066C296.21 127.066 295.697 127.358 295.433 127.941V133H293.771V125.604H295.357L295.398 126.431C295.799 125.788 296.355 125.467 297.066 125.467C297.303 125.467 297.499 125.499 297.654 125.562L297.647 127.121ZM298.249 129.247C298.249 128.108 298.513 127.194 299.042 126.506C299.571 125.813 300.279 125.467 301.168 125.467C301.952 125.467 302.585 125.74 303.068 126.287V122.5H304.729V133H303.226L303.144 132.234C302.647 132.836 301.984 133.137 301.154 133.137C300.288 133.137 299.587 132.788 299.049 132.091C298.516 131.394 298.249 130.446 298.249 129.247ZM299.91 129.391C299.91 130.143 300.054 130.73 300.341 131.154C300.632 131.574 301.045 131.783 301.578 131.783C302.257 131.783 302.754 131.48 303.068 130.874V127.716C302.763 127.123 302.271 126.827 301.592 126.827C301.054 126.827 300.639 127.041 300.348 127.47C300.056 127.894 299.91 128.534 299.91 129.391ZM310.608 130.99C310.608 130.694 310.485 130.468 310.239 130.313C309.998 130.159 309.594 130.022 309.029 129.903C308.464 129.785 307.993 129.634 307.614 129.452C306.785 129.051 306.37 128.47 306.37 127.709C306.37 127.071 306.639 126.538 307.177 126.109C307.715 125.681 308.398 125.467 309.228 125.467C310.112 125.467 310.825 125.686 311.367 126.123C311.914 126.561 312.188 127.128 312.188 127.825H310.526C310.526 127.506 310.408 127.242 310.171 127.032C309.934 126.818 309.619 126.711 309.228 126.711C308.863 126.711 308.564 126.795 308.332 126.964C308.104 127.132 307.99 127.358 307.99 127.641C307.99 127.896 308.097 128.094 308.312 128.235C308.526 128.377 308.959 128.52 309.61 128.666C310.262 128.807 310.772 128.978 311.142 129.179C311.515 129.375 311.791 129.612 311.969 129.89C312.151 130.168 312.242 130.505 312.242 130.901C312.242 131.567 311.966 132.107 311.415 132.521C310.864 132.932 310.141 133.137 309.248 133.137C308.642 133.137 308.102 133.027 307.628 132.809C307.154 132.59 306.785 132.289 306.521 131.906C306.256 131.523 306.124 131.111 306.124 130.669H307.737C307.76 131.061 307.908 131.364 308.182 131.578C308.455 131.788 308.817 131.893 309.269 131.893C309.706 131.893 310.039 131.811 310.267 131.646C310.494 131.478 310.608 131.259 310.608 130.99Z" fill="white"/>
<rect x="208" y="494" width="122" height="58" rx="10" fill="black"/>
<rect x="208.38" y="494.38" width="121.24" height="57.2399" rx="9.61996" stroke="white" stroke-opacity="0.5" stroke-width="0.76007"/>
<path d="M235.982 520H233.932L229.939 513.451V520H227.889V510.047H229.939L233.938 516.609V510.047H235.982V520ZM237.336 516.233C237.336 515.5 237.477 514.846 237.76 514.271C238.042 513.697 238.448 513.253 238.977 512.938C239.51 512.624 240.127 512.467 240.829 512.467C241.827 512.467 242.641 512.772 243.27 513.383C243.903 513.993 244.256 514.823 244.329 515.871L244.343 516.377C244.343 517.512 244.026 518.423 243.393 519.111C242.759 519.795 241.909 520.137 240.843 520.137C239.776 520.137 238.924 519.795 238.286 519.111C237.653 518.428 237.336 517.498 237.336 516.322V516.233ZM239.312 516.377C239.312 517.079 239.444 517.617 239.708 517.99C239.972 518.359 240.351 518.544 240.843 518.544C241.321 518.544 241.695 518.362 241.964 517.997C242.233 517.628 242.367 517.04 242.367 516.233C242.367 515.545 242.233 515.012 241.964 514.634C241.695 514.256 241.317 514.066 240.829 514.066C240.346 514.066 239.972 514.256 239.708 514.634C239.444 515.007 239.312 515.589 239.312 516.377ZM250.898 512.604L250.96 513.431C251.484 512.788 252.193 512.467 253.086 512.467C254.038 512.467 254.692 512.843 255.048 513.595C255.567 512.843 256.308 512.467 257.27 512.467C258.072 512.467 258.669 512.701 259.061 513.171C259.452 513.636 259.648 514.338 259.648 515.276V520H257.666V515.283C257.666 514.864 257.584 514.559 257.42 514.367C257.256 514.171 256.966 514.073 256.552 514.073C255.959 514.073 255.549 514.356 255.321 514.921L255.328 520H253.353V515.29C253.353 514.862 253.268 514.552 253.1 514.36C252.931 514.169 252.644 514.073 252.238 514.073C251.678 514.073 251.272 514.306 251.021 514.771V520H249.046V512.604H250.898ZM260.865 516.233C260.865 515.5 261.007 514.846 261.289 514.271C261.572 513.697 261.977 513.253 262.506 512.938C263.039 512.624 263.657 512.467 264.358 512.467C265.356 512.467 266.17 512.772 266.799 513.383C267.432 513.993 267.785 514.823 267.858 515.871L267.872 516.377C267.872 517.512 267.555 518.423 266.922 519.111C266.288 519.795 265.438 520.137 264.372 520.137C263.306 520.137 262.453 519.795 261.815 519.111C261.182 518.428 260.865 517.498 260.865 516.322V516.233ZM262.841 516.377C262.841 517.079 262.973 517.617 263.237 517.99C263.502 518.359 263.88 518.544 264.372 518.544C264.851 518.544 265.224 518.362 265.493 517.997C265.762 517.628 265.896 517.04 265.896 516.233C265.896 515.545 265.762 515.012 265.493 514.634C265.224 514.256 264.846 514.066 264.358 514.066C263.875 514.066 263.502 514.256 263.237 514.634C262.973 515.007 262.841 515.589 262.841 516.377ZM273.245 514.456C272.976 514.42 272.739 514.401 272.534 514.401C271.787 514.401 271.297 514.654 271.064 515.16V520H269.089V512.604H270.955L271.01 513.485C271.406 512.806 271.955 512.467 272.657 512.467C272.876 512.467 273.081 512.496 273.272 512.556L273.245 514.456ZM277.47 520.137C276.385 520.137 275.501 519.804 274.817 519.139C274.138 518.473 273.799 517.587 273.799 516.479V516.288C273.799 515.545 273.942 514.882 274.229 514.299C274.517 513.711 274.922 513.26 275.446 512.945C275.975 512.626 276.576 512.467 277.251 512.467C278.263 512.467 279.058 512.786 279.637 513.424C280.22 514.062 280.512 514.966 280.512 516.138V516.944H275.802C275.866 517.427 276.057 517.815 276.376 518.106C276.7 518.398 277.107 518.544 277.6 518.544C278.361 518.544 278.955 518.268 279.384 517.717L280.354 518.804C280.058 519.223 279.657 519.551 279.151 519.788C278.646 520.021 278.085 520.137 277.47 520.137ZM277.244 514.066C276.852 514.066 276.533 514.199 276.287 514.463C276.046 514.727 275.891 515.105 275.822 515.598H278.57V515.44C278.561 515.003 278.443 514.666 278.215 514.429C277.987 514.187 277.663 514.066 277.244 514.066ZM289.132 517.956C289.132 517.715 289.011 517.525 288.77 517.389C288.533 517.247 288.15 517.122 287.621 517.013C285.862 516.644 284.982 515.896 284.982 514.771C284.982 514.114 285.254 513.567 285.796 513.13C286.343 512.688 287.056 512.467 287.936 512.467C288.874 512.467 289.624 512.688 290.185 513.13C290.75 513.572 291.032 514.146 291.032 514.853H289.057C289.057 514.57 288.965 514.338 288.783 514.155C288.601 513.968 288.316 513.875 287.929 513.875C287.596 513.875 287.339 513.95 287.156 514.101C286.974 514.251 286.883 514.442 286.883 514.675C286.883 514.894 286.985 515.071 287.19 515.208C287.4 515.34 287.751 515.456 288.243 515.557C288.735 515.652 289.15 515.762 289.487 515.885C290.531 516.268 291.053 516.931 291.053 517.874C291.053 518.549 290.763 519.095 290.185 519.515C289.606 519.929 288.858 520.137 287.942 520.137C287.323 520.137 286.771 520.027 286.288 519.809C285.81 519.585 285.434 519.282 285.16 518.899C284.887 518.512 284.75 518.095 284.75 517.648H286.623C286.641 517.999 286.771 518.268 287.013 518.455C287.254 518.642 287.578 518.735 287.983 518.735C288.362 518.735 288.646 518.665 288.838 518.523C289.034 518.378 289.132 518.188 289.132 517.956ZM298.989 516.37C298.989 517.509 298.729 518.423 298.21 519.111C297.695 519.795 296.998 520.137 296.118 520.137C295.371 520.137 294.767 519.877 294.307 519.357V522.844H292.331V512.604H294.163L294.231 513.328C294.71 512.754 295.334 512.467 296.104 512.467C297.016 512.467 297.725 512.804 298.23 513.479C298.736 514.153 298.989 515.083 298.989 516.268V516.37ZM297.014 516.227C297.014 515.538 296.891 515.007 296.645 514.634C296.403 514.26 296.05 514.073 295.585 514.073C294.965 514.073 294.539 514.31 294.307 514.784V517.812C294.548 518.3 294.979 518.544 295.599 518.544C296.542 518.544 297.014 517.771 297.014 516.227ZM302.305 520H300.322V509.5H302.305V520ZM306.023 520H304.041V512.604H306.023V520ZM303.925 510.689C303.925 510.393 304.023 510.149 304.219 509.958C304.419 509.767 304.69 509.671 305.032 509.671C305.369 509.671 305.638 509.767 305.839 509.958C306.039 510.149 306.14 510.393 306.14 510.689C306.14 510.99 306.037 511.236 305.832 511.428C305.632 511.619 305.365 511.715 305.032 511.715C304.7 511.715 304.431 511.619 304.226 511.428C304.025 511.236 303.925 510.99 303.925 510.689ZM310.022 510.785V512.604H311.287V514.053H310.022V517.744C310.022 518.018 310.075 518.214 310.18 518.332C310.285 518.451 310.485 518.51 310.781 518.51C311 518.51 311.194 518.494 311.362 518.462V519.959C310.975 520.077 310.576 520.137 310.166 520.137C308.781 520.137 308.074 519.437 308.047 518.038V514.053H306.967V512.604H308.047V510.785H310.022ZM230.521 533.204L231.888 528.604H234.007L231.033 537.148L230.869 537.538C230.427 538.504 229.698 538.987 228.682 538.987C228.395 538.987 228.103 538.944 227.807 538.857V537.36L228.107 537.367C228.481 537.367 228.759 537.31 228.941 537.196C229.128 537.082 229.274 536.893 229.379 536.629L229.611 536.021L227.021 528.604H229.146L230.521 533.204ZM234.369 532.233C234.369 531.5 234.51 530.846 234.793 530.271C235.076 529.697 235.481 529.253 236.01 528.938C236.543 528.624 237.16 528.467 237.862 528.467C238.86 528.467 239.674 528.772 240.303 529.383C240.936 529.993 241.289 530.823 241.362 531.871L241.376 532.377C241.376 533.512 241.059 534.423 240.426 535.111C239.792 535.795 238.942 536.137 237.876 536.137C236.81 536.137 235.957 535.795 235.319 535.111C234.686 534.428 234.369 533.498 234.369 532.322V532.233ZM236.345 532.377C236.345 533.079 236.477 533.617 236.741 533.99C237.006 534.359 237.384 534.544 237.876 534.544C238.354 534.544 238.728 534.362 238.997 533.997C239.266 533.628 239.4 533.04 239.4 532.233C239.4 531.545 239.266 531.012 238.997 530.634C238.728 530.256 238.35 530.066 237.862 530.066C237.379 530.066 237.006 530.256 236.741 530.634C236.477 531.007 236.345 531.589 236.345 532.377ZM247.022 535.248C246.535 535.84 245.86 536.137 244.999 536.137C244.206 536.137 243.6 535.909 243.181 535.453C242.766 534.997 242.554 534.33 242.545 533.45V528.604H244.521V533.382C244.521 534.152 244.871 534.537 245.573 534.537C246.243 534.537 246.703 534.305 246.954 533.84V528.604H248.937V536H247.077L247.022 535.248ZM254.583 530.456C254.314 530.42 254.077 530.401 253.872 530.401C253.125 530.401 252.635 530.654 252.402 531.16V536H250.427V528.604H252.293L252.348 529.485C252.744 528.806 253.293 528.467 253.995 528.467C254.214 528.467 254.419 528.496 254.61 528.556L254.583 530.456ZM261.392 526.785V528.604H262.656V530.053H261.392V533.744C261.392 534.018 261.444 534.214 261.549 534.332C261.654 534.451 261.854 534.51 262.15 534.51C262.369 534.51 262.563 534.494 262.731 534.462V535.959C262.344 536.077 261.945 536.137 261.535 536.137C260.15 536.137 259.443 535.437 259.416 534.038V530.053H258.336V528.604H259.416V526.785H261.392ZM268.043 536C267.952 535.822 267.886 535.601 267.845 535.337C267.366 535.87 266.744 536.137 265.979 536.137C265.254 536.137 264.652 535.927 264.174 535.508C263.7 535.089 263.463 534.56 263.463 533.922C263.463 533.138 263.752 532.536 264.331 532.117C264.914 531.698 265.755 531.486 266.854 531.481H267.763V531.058C267.763 530.716 267.674 530.442 267.496 530.237C267.323 530.032 267.047 529.93 266.669 529.93C266.336 529.93 266.074 530.009 265.883 530.169C265.696 530.328 265.603 530.547 265.603 530.825H263.627C263.627 530.397 263.759 530 264.023 529.636C264.288 529.271 264.661 528.986 265.145 528.781C265.628 528.572 266.17 528.467 266.771 528.467C267.683 528.467 268.405 528.697 268.938 529.157C269.476 529.613 269.745 530.256 269.745 531.085V534.291C269.75 534.993 269.848 535.524 270.039 535.884V536H268.043ZM266.409 534.626C266.701 534.626 266.97 534.562 267.216 534.435C267.462 534.302 267.644 534.127 267.763 533.908V532.637H267.024C266.035 532.637 265.509 532.979 265.445 533.662L265.438 533.778C265.438 534.024 265.525 534.227 265.698 534.387C265.871 534.546 266.108 534.626 266.409 534.626ZM277.928 532.37C277.928 533.555 277.675 534.48 277.169 535.146C276.663 535.806 275.957 536.137 275.05 536.137C274.248 536.137 273.607 535.829 273.129 535.214L273.04 536H271.263V525.5H273.238V529.267C273.694 528.733 274.293 528.467 275.036 528.467C275.938 528.467 276.645 528.799 277.155 529.465C277.67 530.126 277.928 531.058 277.928 532.261V532.37ZM275.952 532.227C275.952 531.479 275.834 530.935 275.597 530.593C275.36 530.246 275.007 530.073 274.537 530.073C273.908 530.073 273.475 530.331 273.238 530.846V533.765C273.48 534.284 273.917 534.544 274.551 534.544C275.189 534.544 275.608 534.229 275.809 533.601C275.904 533.3 275.952 532.842 275.952 532.227Z" fill="white"/>
<rect y="411" width="107" height="43" rx="10" fill="black"/>
<rect x="0.380035" y="411.38" width="106.24" height="42.2399" rx="9.61996" stroke="white" stroke-opacity="0.5" stroke-width="0.76007"/>
<path d="M21.2139 435.437C21.2139 434.999 21.0589 434.662 20.749 434.425C20.4437 434.188 19.89 433.949 19.0879 433.707C18.2858 433.465 17.6478 433.197 17.1738 432.9C16.2669 432.331 15.8135 431.588 15.8135 430.672C15.8135 429.87 16.1393 429.209 16.791 428.689C17.4473 428.17 18.2972 427.91 19.3408 427.91C20.0335 427.91 20.651 428.038 21.1934 428.293C21.7357 428.548 22.1618 428.913 22.4717 429.387C22.7816 429.856 22.9365 430.378 22.9365 430.952H21.2139C21.2139 430.433 21.0498 430.027 20.7217 429.735C20.3981 429.439 19.9333 429.291 19.3271 429.291C18.762 429.291 18.3223 429.412 18.0078 429.653C17.6979 429.895 17.543 430.232 17.543 430.665C17.543 431.03 17.7116 431.335 18.0488 431.581C18.3861 431.823 18.9421 432.06 19.7168 432.292C20.4915 432.52 21.1136 432.782 21.583 433.078C22.0524 433.37 22.3965 433.707 22.6152 434.09C22.834 434.468 22.9434 434.912 22.9434 435.423C22.9434 436.252 22.6243 436.913 21.9863 437.405C21.3529 437.893 20.4915 438.137 19.4023 438.137C18.6823 438.137 18.0192 438.005 17.4131 437.74C16.8115 437.471 16.3421 437.102 16.0049 436.633C15.6722 436.163 15.5059 435.617 15.5059 434.992H17.2354C17.2354 435.557 17.4222 435.995 17.7959 436.305C18.1696 436.615 18.7051 436.77 19.4023 436.77C20.0039 436.77 20.4551 436.649 20.7559 436.407C21.0612 436.161 21.2139 435.838 21.2139 435.437ZM26.7031 434.828L25.9648 435.587V438H24.3037V427.5H25.9648V433.557L26.4844 432.907L28.5283 430.604H30.5244L27.7764 433.687L30.8184 438H28.8975L26.7031 434.828ZM33.3818 438H31.7207V430.604H33.3818V438ZM31.6182 428.683C31.6182 428.427 31.6979 428.215 31.8574 428.047C32.0215 427.878 32.2539 427.794 32.5547 427.794C32.8555 427.794 33.0879 427.878 33.252 428.047C33.416 428.215 33.498 428.427 33.498 428.683C33.498 428.933 33.416 429.143 33.252 429.312C33.0879 429.476 32.8555 429.558 32.5547 429.558C32.2539 429.558 32.0215 429.476 31.8574 429.312C31.6979 429.143 31.6182 428.933 31.6182 428.683ZM41.6738 434.377C41.6738 435.521 41.4141 436.435 40.8945 437.118C40.375 437.797 39.6777 438.137 38.8027 438.137C37.9915 438.137 37.3421 437.87 36.8545 437.337V440.844H35.1934V430.604H36.7246L36.793 431.355C37.2806 430.763 37.9437 430.467 38.7822 430.467C39.6846 430.467 40.391 430.804 40.9014 431.479C41.4163 432.148 41.6738 433.08 41.6738 434.274V434.377ZM40.0195 434.233C40.0195 433.495 39.8714 432.91 39.5752 432.477C39.2835 432.044 38.8643 431.827 38.3174 431.827C37.6383 431.827 37.1507 432.107 36.8545 432.668V435.949C37.1553 436.523 37.6475 436.811 38.3311 436.811C38.8597 436.811 39.2721 436.599 39.5684 436.175C39.8691 435.746 40.0195 435.099 40.0195 434.233ZM48.6533 428.806V430.604H49.959V431.834H48.6533V435.963C48.6533 436.245 48.708 436.451 48.8174 436.578C48.9313 436.701 49.1318 436.763 49.4189 436.763C49.6104 436.763 49.804 436.74 50 436.694V437.979C49.6217 438.084 49.2572 438.137 48.9062 438.137C47.6302 438.137 46.9922 437.433 46.9922 436.024V431.834H45.7754V430.604H46.9922V428.806H48.6533ZM52.8711 431.41C53.4134 430.781 54.0993 430.467 54.9287 430.467C56.5055 430.467 57.3053 431.367 57.3281 433.167V438H55.667V433.229C55.667 432.718 55.5553 432.358 55.332 432.148C55.1133 431.934 54.7897 431.827 54.3613 431.827C53.696 431.827 53.1992 432.123 52.8711 432.716V438H51.21V427.5H52.8711V431.41ZM62.2705 438.137C61.2178 438.137 60.3633 437.806 59.707 437.146C59.0553 436.48 58.7295 435.596 58.7295 434.493V434.288C58.7295 433.55 58.8708 432.891 59.1533 432.312C59.4404 431.729 59.8415 431.276 60.3564 430.952C60.8714 430.629 61.4456 430.467 62.0791 430.467C63.0863 430.467 63.8633 430.788 64.4102 431.431C64.9616 432.073 65.2373 432.982 65.2373 434.158V434.828H60.4043C60.4544 435.439 60.6572 435.922 61.0127 436.277C61.3727 436.633 61.8239 436.811 62.3662 436.811C63.1273 436.811 63.7471 436.503 64.2256 435.888L65.1211 436.742C64.8249 437.184 64.4284 437.528 63.9316 437.774C63.4395 438.016 62.8857 438.137 62.2705 438.137ZM62.0723 431.8C61.6165 431.8 61.2474 431.959 60.9648 432.278C60.6868 432.597 60.5091 433.042 60.4316 433.611H63.5967V433.488C63.5602 432.932 63.4121 432.513 63.1523 432.23C62.8926 431.943 62.5326 431.8 62.0723 431.8ZM71.7861 438H70.125V427.5H71.7861V438ZM75.3682 438H73.707V430.604H75.3682V438ZM73.6045 428.683C73.6045 428.427 73.6842 428.215 73.8438 428.047C74.0078 427.878 74.2402 427.794 74.541 427.794C74.8418 427.794 75.0742 427.878 75.2383 428.047C75.4023 428.215 75.4844 428.427 75.4844 428.683C75.4844 428.933 75.4023 429.143 75.2383 429.312C75.0742 429.476 74.8418 429.558 74.541 429.558C74.2402 429.558 74.0078 429.476 73.8438 429.312C73.6842 429.143 73.6045 428.933 73.6045 428.683ZM78.7246 430.604L78.7725 431.458C79.3193 430.797 80.0371 430.467 80.9258 430.467C82.4661 430.467 83.25 431.349 83.2773 433.112V438H81.6162V433.208C81.6162 432.739 81.5137 432.392 81.3086 432.169C81.1081 431.941 80.7777 431.827 80.3174 431.827C79.6475 431.827 79.1484 432.13 78.8203 432.736V438H77.1592V430.604H78.7246ZM88.2334 438.137C87.1807 438.137 86.3262 437.806 85.6699 437.146C85.0182 436.48 84.6924 435.596 84.6924 434.493V434.288C84.6924 433.55 84.8337 432.891 85.1162 432.312C85.4033 431.729 85.8044 431.276 86.3193 430.952C86.8343 430.629 87.4085 430.467 88.042 430.467C89.0492 430.467 89.8262 430.788 90.373 431.431C90.9245 432.073 91.2002 432.982 91.2002 434.158V434.828H86.3672C86.4173 435.439 86.6201 435.922 86.9756 436.277C87.3356 436.633 87.7868 436.811 88.3291 436.811C89.0902 436.811 89.71 436.503 90.1885 435.888L91.084 436.742C90.7878 437.184 90.3913 437.528 89.8945 437.774C89.4023 438.016 88.8486 438.137 88.2334 438.137ZM88.0352 431.8C87.5794 431.8 87.2103 431.959 86.9277 432.278C86.6497 432.597 86.472 433.042 86.3945 433.611H89.5596V433.488C89.5231 432.932 89.375 432.513 89.1152 432.23C88.8555 431.943 88.4954 431.8 88.0352 431.8Z" fill="white"/>
</svg>
